<?xml version="1.0" standalone="no"?>
<!DOCTYPE svg PUBLIC "-//W3C//DTD SVG 1.1//EN" "http://www.w3.org/Graphics/SVG/1.1/DTD/svg11.dtd" >
<svg xmlns="http://www.w3.org/2000/svg" xmlns:xlink="http://www.w3.org/1999/xlink" version="1.1">
<metadata>
Created by FontForge 20161116 at Sun Jan  5 07:20:58 2014
 By Jimmy Wärting
Copyright (c) 2008 by abstrkt. All rights reserved.
</metadata>
<defs>
<font id="LitteraPlainRegular" horiz-adv-x="578" >
  <font-face 
    font-family="Littera Plain Regular"
    font-weight="400"
    font-stretch="normal"
    units-per-em="1000"
    panose-1="2 0 5 6 4 0 0 2 0 4"
    ascent="731"
    descent="-269"
    x-height="460"
    cap-height="650"
    bbox="-27 -249 1165 924"
    underline-thickness="50"
    underline-position="-100"
    unicode-range="U+0020-E010"
  />
<missing-glyph horiz-adv-x="0" 
 />
    <glyph glyph-name=".notdef" horiz-adv-x="0" 
 />
    <glyph glyph-name="NULL" unicode="&#xe002;" horiz-adv-x="0" 
 />
    <glyph glyph-name="CR" unicode="&#xe000;" horiz-adv-x="333" 
 />
    <glyph glyph-name="space" unicode=" " horiz-adv-x="235" 
 />
    <glyph glyph-name="exclam" unicode="!" horiz-adv-x="217" 
d="M60 650h96l-6 -450h-83zM66 11c-21 23 -21 61 0 84c23 23 61 23 84 0s23 -61 0 -84c-23 -21 -61 -21 -84 0z" />
    <glyph glyph-name="quotedbl" unicode="&#x22;" horiz-adv-x="305" 
d="M122 494h-72l-10 210h92zM255 494h-73l-10 210h93z" />
    <glyph glyph-name="numbersign" unicode="#" horiz-adv-x="700" 
d="M226 402h-146v83h178l63 165h89l-64 -165h137l63 165h89l-64 -165h129v-83h-161l-59 -156h140v-83h-173l-62 -163h-88l62 163h-137l-62 -163h-88l62 163h-134v83h166zM451 402h-137l-59 -156h136z" />
    <glyph glyph-name="dollar" unicode="$" horiz-adv-x="539" 
d="M489 183c0 -107 -67 -173 -174 -188v-133h-89v132c-81 9 -140 46 -178 112l59 57c40 -60 94 -90 161 -90c84 0 130 38 130 110c0 56 -40 89 -129 116c-56 16 -80 25 -120 45c-56 30 -79 70 -83 145c0 88 55 153 160 165v134h89v-134c59 -5 109 -30 151 -76l-55 -68
c-49 47 -85 65 -141 65c-73 0 -116 -32 -116 -87c0 -28 9 -49 26 -62c18 -13 51 -28 100 -43c68 -21 104 -36 147 -67s62 -74 62 -133z" />
    <glyph glyph-name="ampersand" unicode="&#x26;" horiz-adv-x="586" 
d="M556 43l-56 -58l-74 79c-49 -53 -110 -79 -182 -79c-57 0 -106 14 -145 43s-59 72 -59 129c0 83 43 130 126 185c-61 71 -81 108 -81 163c0 47 16 86 48 115c33 30 75 45 127 45c107 0 175 -54 175 -145c0 -72 -47 -129 -143 -194l119 -131c14 31 23 65 28 100h87
c-5 -57 -22 -112 -52 -165zM366 124l-144 158c-63 -41 -92 -70 -92 -122c0 -59 48 -92 112 -92c50 0 91 19 124 56zM345 505c0 51 -28 77 -85 77c-48 0 -85 -29 -85 -82c0 -36 14 -63 61 -116c75 48 109 80 109 121z" />
    <glyph glyph-name="quotesingle" unicode="'" horiz-adv-x="172" 
d="M122 494h-72l-10 210h92z" />
    <glyph glyph-name="parenleft" unicode="(" horiz-adv-x="269" 
d="M60 268c0 164 41 313 122 448l77 -40c-72 -126 -108 -262 -108 -408c0 -138 36 -269 108 -393l-78 -40c-81 136 -121 280 -121 433z" />
    <glyph glyph-name="parenright" unicode=")" horiz-adv-x="269" 
d="M209 268c0 -151 -41 -296 -122 -433l-77 40c72 126 108 257 108 393c0 146 -36 282 -108 408c17 9 42 23 77 40c81 -136 122 -285 122 -448z" />
    <glyph glyph-name="asterisk" unicode="*" horiz-adv-x="365" 
d="M182 580l50 109l68 -39l-70 -98l120 12v-78l-120 11l70 -98l-68 -39l-50 109l-50 -109l-67 39l69 98l-119 -11v78l119 -12l-69 98l67 39z" />
    <glyph glyph-name="plus" unicode="+" horiz-adv-x="510" 
d="M211 203h-151v78h151v156h88v-156h151v-78h-151v-156h-88v156z" />
    <glyph glyph-name="comma" unicode="," horiz-adv-x="212" 
d="M68 94h99l-70 -204h-62c21 136 32 204 33 204z" />
    <glyph glyph-name="hyphen" unicode="-" horiz-adv-x="435" 
d="M385 203h-335v78h335v-78z" />
    <glyph glyph-name="period" unicode="." horiz-adv-x="197" 
d="M56 11c-21 23 -21 61 0 84c23 23 61 23 84 0s23 -61 0 -84c-23 -21 -61 -21 -84 0z" />
    <glyph glyph-name="slash" unicode="/" horiz-adv-x="450" 
d="M373 695l77 -38l-373 -785l-77 37z" />
    <glyph glyph-name="zero" unicode="0" horiz-adv-x="547" 
d="M273 665c149 0 224 -113 224 -340s-75 -340 -224 -340s-223 113 -223 340s74 340 223 340zM273 68c89 0 131 74 131 257c0 184 -42 257 -131 257c-88 0 -130 -74 -130 -257s42 -257 130 -257z" />
    <glyph glyph-name="one" unicode="1" horiz-adv-x="287" 
d="M126 511l-91 -72v95l182 136v-670h-91v511z" />
    <glyph glyph-name="two" unicode="2" horiz-adv-x="480" 
d="M202 83h233v-83h-403c19 25 52 66 99 123s83 100 106 131c24 31 47 69 69 113c71 135 17 220 -60 215c-57 0 -91 -33 -104 -98l-83 24c20 105 83 157 188 157c81 0 186 -39 186 -172c0 -65 -29 -143 -84 -222c-27 -39 -51 -72 -72 -98c-20 -26 -45 -56 -75 -90z" />
    <glyph glyph-name="three" unicode="3" horiz-adv-x="506" 
d="M48 136l85 29c14 -64 53 -96 117 -96c63 0 106 44 106 124c0 71 -39 110 -96 110h-43v84h38c65 0 92 45 92 100c0 67 -41 96 -98 96c-47 0 -93 -30 -105 -102l-84 24c11 57 34 98 70 123c37 25 77 37 121 37c116 0 194 -61 194 -169c0 -75 -40 -138 -101 -149v-6
c73 -16 112 -75 112 -152c0 -59 -16 -107 -49 -146s-85 -58 -156 -58c-105 0 -183 52 -203 151z" />
    <glyph glyph-name="four" unicode="4" horiz-adv-x="489" 
d="M25 138v74l244 438h124v-434h71v-78h-71v-138h-91v138h-277zM302 547l-182 -331h182v331z" />
    <glyph glyph-name="five" unicode="5" horiz-adv-x="507" 
d="M97 650h328v-83h-252l-19 -171c19 29 62 50 110 50c67 0 116 -22 147 -65s46 -99 46 -167c0 -110 -48 -229 -208 -229c-111 0 -178 50 -202 151l85 29c13 -63 61 -96 117 -96c60 0 108 51 108 144c0 100 -33 147 -109 147c-43 0 -76 -19 -99 -57h-88z" />
    <glyph glyph-name="six" unicode="6" horiz-adv-x="509" 
d="M458 212c-1 -153 -83 -227 -195 -227c-155 0 -214 100 -214 297c0 255 72 383 215 383c105 0 167 -58 184 -155l-84 -29c-13 67 -46 100 -101 100c-81 0 -123 -81 -127 -243c27 53 82 76 134 76c54 0 99 -18 135 -54s54 -85 53 -148zM258 68c65 0 112 43 112 132
c0 85 -47 131 -112 131s-115 -44 -115 -131c0 -89 48 -132 115 -132z" />
    <glyph glyph-name="seven" unicode="7" horiz-adv-x="444" 
d="M305 567h-275v83h394l-221 -650h-96z" />
    <glyph glyph-name="eight" unicode="8" horiz-adv-x="507" 
d="M437 495c0 -71 -39 -129 -99 -146v-4c64 -16 119 -77 119 -165c0 -129 -84 -195 -203 -195c-59 0 -108 16 -147 48c-38 33 -57 81 -57 146c0 88 54 150 117 166v4c-60 17 -97 76 -97 145c0 53 18 95 53 125c35 31 79 46 131 46s95 -15 130 -46c35 -30 53 -71 53 -124z
M254 58c61 0 109 40 109 125c0 75 -46 120 -109 120c-64 0 -110 -45 -110 -121c0 -85 46 -124 110 -124zM345 494c0 55 -35 98 -91 98c-57 0 -92 -43 -92 -98c0 -59 32 -108 92 -108s91 49 91 108z" />
    <glyph glyph-name="nine" unicode="9" horiz-adv-x="509" 
d="M51 440c1 77 20 133 57 170s84 55 139 55c141 0 212 -99 212 -297c0 -255 -70 -383 -211 -383c-108 0 -174 52 -199 155l84 23c16 -63 54 -95 114 -95c77 0 119 81 125 244c-28 -53 -81 -76 -132 -76c-53 0 -98 19 -135 56s-55 87 -54 148zM250 582
c-63 0 -111 -46 -111 -133c0 -84 46 -130 111 -130s115 44 115 131c0 85 -51 132 -115 132z" />
    <glyph glyph-name="colon" unicode=":" horiz-adv-x="227" 
d="M71 58c-21 23 -21 61 0 84c23 23 61 23 84 0s23 -61 0 -84c-23 -21 -61 -21 -84 0zM71 315c-21 23 -21 61 0 84c23 23 61 23 84 0s23 -61 0 -84c-23 -21 -61 -21 -84 0z" />
    <glyph glyph-name="semicolon" unicode=";" horiz-adv-x="210" 
d="M69 315c-23 23 -23 61 0 84s62 23 83 0c23 -23 23 -61 0 -84c-21 -21 -60 -21 -83 0zM68 94h99l-70 -204h-62c21 136 32 204 33 204z" />
    <glyph glyph-name="less" unicode="&#x3c;" horiz-adv-x="417" 
d="M377 45l-54 -60l-298 258l297 256l55 -59l-233 -197z" />
    <glyph glyph-name="equal" unicode="=" horiz-adv-x="495" 
d="M435 133h-375v78h375v-78zM435 278h-375v78h375v-78z" />
    <glyph glyph-name="greater" unicode="&#x3e;" horiz-adv-x="417" 
d="M95 499l297 -256l-298 -258l-54 60l233 198l-233 197z" />
    <glyph glyph-name="question" unicode="?" horiz-adv-x="447" 
d="M264 250v-50h-93v69c0 60 26 93 79 126c3 1 19 13 22 14c9 7 21 15 26 22c15 12 21 31 21 56c0 67 -41 96 -97 96c-47 0 -94 -30 -106 -102l-84 24c11 57 34 98 70 123s76 37 120 37c116 0 195 -62 195 -169c0 -55 -27 -102 -82 -140c-19 -13 -32 -22 -40 -29
c-15 -13 -31 -40 -31 -77zM178 11c-23 23 -23 61 0 84s62 23 83 0c23 -23 23 -61 0 -84c-21 -21 -60 -21 -83 0z" />
    <glyph glyph-name="at" unicode="@" horiz-adv-x="817" 
d="M128 215c0 -203 105 -307 280 -307c58 0 108 12 150 37l45 -65c-57 -35 -122 -52 -195 -52c-113 0 -201 35 -266 105c-65 69 -97 162 -97 279c0 116 33 210 100 281c67 72 155 108 264 108c111 0 199 -35 264 -106c66 -70 99 -163 99 -280c0 -64 -12 -117 -37 -158
s-61 -62 -110 -62c-51 0 -86 18 -104 53c-39 -35 -91 -53 -158 -53c-96 0 -148 55 -148 131c0 72 42 107 95 128c17 7 37 11 61 14c49 7 78 8 129 8c3 59 -28 92 -93 92c-45 0 -85 -16 -118 -49l-48 58c45 45 101 68 168 68c119 0 182 -51 182 -178v-138
c0 -37 13 -55 39 -55c37 0 58 53 58 141c0 99 -27 175 -80 227c-53 53 -119 79 -200 79c-80 0 -147 -26 -200 -79s-80 -128 -80 -227zM500 116v92c-176 0 -192 -37 -192 -81c0 -33 23 -58 72 -58s89 16 120 47z" />
    <glyph glyph-name="A" unicode="A" horiz-adv-x="657" 
d="M637 0h-98l-62 138h-299l-60 -138h-98l305 670h6zM447 210l-120 274l-118 -274h238z" />
    <glyph glyph-name="B" unicode="B" horiz-adv-x="615" 
d="M339 0h-269v650h243c151 0 226 -60 226 -159c0 -69 -34 -130 -106 -147v-5c88 -12 137 -82 137 -159c0 -107 -78 -180 -231 -180zM315 294h-149v-219h159c98 0 147 37 147 111c0 72 -52 108 -157 108zM166 575v-204h129c101 0 147 33 147 108c0 64 -48 96 -143 96h-133z
" />
    <glyph glyph-name="C" unicode="C" horiz-adv-x="661" 
d="M143 325c0 -83 20 -146 61 -190s93 -66 156 -66c80 0 141 34 184 101l72 -51c-55 -89 -140 -134 -257 -134c-95 0 -171 30 -228 90s-86 142 -86 246c0 105 29 188 86 250c57 63 133 94 227 94c113 0 197 -43 253 -130l-72 -54c-42 66 -102 99 -181 99
c-63 0 -114 -22 -155 -67c-40 -44 -60 -107 -60 -188z" />
    <glyph glyph-name="D" unicode="D" horiz-adv-x="646" 
d="M294 0h-224v650h222c197 0 309 -124 309 -328s-110 -322 -307 -322zM166 565v-480h113c151 0 227 80 227 240c0 156 -78 240 -227 240h-113z" />
    <glyph glyph-name="E" unicode="E" horiz-adv-x="549" 
d="M504 0h-434v650h424v-83h-328v-195h273v-80h-273v-210h338v-82z" />
    <glyph glyph-name="F" unicode="F" horiz-adv-x="534" 
d="M166 0h-96v650h424v-83h-328v-197h253v-80h-253v-290z" />
    <glyph glyph-name="G" unicode="G" horiz-adv-x="685" 
d="M546 259h-210v75h304v-45c0 -188 -99 -304 -282 -304c-95 0 -171 30 -228 90s-85 142 -85 246c0 105 29 188 86 250c57 63 133 94 227 94c115 0 200 -42 256 -127l-74 -57c-41 66 -101 99 -182 99c-63 0 -114 -22 -155 -67c-40 -44 -60 -107 -60 -188
c0 -83 20 -146 60 -190s92 -66 155 -66c123 0 188 70 188 190z" />
    <glyph glyph-name="H" unicode="H" horiz-adv-x="664" 
d="M499 292h-333v-292h-96v650h96v-280h333v280h95v-650h-95v292z" />
    <glyph glyph-name="I" unicode="I" horiz-adv-x="236" 
d="M70 650h96v-650h-96v650z" />
    <glyph glyph-name="J" unicode="J" horiz-adv-x="388" 
d="M222 650h96v-470c0 -129 -65 -195 -168 -195c-48 0 -88 13 -120 40l33 78c29 -21 55 -31 78 -31c54 0 81 43 81 130v448z" />
    <glyph glyph-name="K" unicode="K" horiz-adv-x="623" 
d="M70 650h96v-306l280 306h117l-296 -310v-7l326 -333h-125l-302 324v-324h-96v650z" />
    <glyph glyph-name="L" unicode="L" horiz-adv-x="534" 
d="M494 88v-88h-424v650h96v-562h328z" />
    <glyph glyph-name="M" unicode="M" horiz-adv-x="786" 
d="M396 132h-6l-224 297v-429h-96v670h5l318 -407l318 407h5v-670h-95v429z" />
    <glyph glyph-name="N" unicode="N" horiz-adv-x="684" 
d="M614 -20h-5l-443 471v-451h-96v670h5l443 -470v450h96v-670z" />
    <glyph glyph-name="O" unicode="O" horiz-adv-x="717" 
d="M129 77c-56 62 -84 145 -84 248s28 186 84 247c57 62 133 93 229 93s172 -31 229 -93c57 -61 85 -144 85 -247s-28 -186 -85 -248c-57 -61 -133 -92 -229 -92s-172 31 -229 92zM143 325c0 -78 19 -140 58 -187c39 -46 92 -69 157 -69c66 0 118 23 157 69s59 108 59 187
c0 157 -84 255 -216 255c-65 0 -118 -23 -157 -69c-39 -45 -58 -107 -58 -186z" />
    <glyph glyph-name="P" unicode="P" horiz-adv-x="581" 
d="M288 231h-122v-231h-96v650h218c165 0 248 -69 248 -206c0 -144 -96 -213 -248 -213zM166 569v-259h100c117 0 174 34 174 134c0 97 -57 125 -174 125h-100z" />
    <glyph glyph-name="Q" unicode="Q" horiz-adv-x="707" 
d="M45 325c0 103 28 186 84 247c57 62 133 93 229 93s172 -31 229 -93c57 -61 85 -144 85 -247c0 -91 -22 -167 -67 -226s-106 -96 -184 -109l166 -126l-115 -24l-149 146c-86 7 -154 41 -204 102c-49 61 -74 140 -74 237zM143 325c0 -78 19 -140 58 -187
c39 -46 92 -69 157 -69c66 0 118 23 157 69s59 108 59 187c0 157 -84 255 -216 255c-65 0 -118 -23 -157 -69c-39 -45 -58 -107 -58 -186z" />
    <glyph glyph-name="R" unicode="R" horiz-adv-x="611" 
d="M288 226h-122v-226h-96v650h218c155 0 253 -66 253 -209c0 -95 -46 -160 -121 -192l156 -249h-115l-134 228c-10 -1 -23 -2 -39 -2zM166 569v-264h100c117 0 179 36 179 136c0 97 -62 128 -179 128h-100z" />
    <glyph glyph-name="S" unicode="S" horiz-adv-x="592" 
d="M547 178c0 -62 -24 -110 -73 -143s-109 -50 -181 -50c-49 0 -97 9 -144 26s-83 47 -108 88l62 63c41 -60 118 -90 190 -90c95 0 153 39 153 106c0 60 -38 87 -142 112c-67 16 -102 27 -147 48c-65 33 -93 74 -96 152c0 105 90 175 234 175c101 0 177 -25 226 -76l-58 -70
c-48 41 -104 62 -168 62c-83 0 -133 -37 -133 -90c0 -29 10 -51 30 -65c20 -13 57 -27 111 -42c78 -21 131 -39 158 -55c57 -33 86 -83 86 -151z" />
    <glyph glyph-name="T" unicode="T" horiz-adv-x="602" 
d="M40 650h522v-83h-213v-567h-96v567h-213v83z" />
    <glyph glyph-name="U" unicode="U" horiz-adv-x="660" 
d="M60 264v386h96v-368c0 -139 58 -209 173 -209c117 0 175 70 175 209v368h96v-386c0 -179 -106 -279 -270 -279s-270 100 -270 279z" />
    <glyph glyph-name="V" unicode="V" horiz-adv-x="657" 
d="M120 650l210 -478l206 478h101l-305 -670h-6l-306 670h100z" />
    <glyph glyph-name="W" unicode="W" horiz-adv-x="946" 
d="M475 670l214 -460l125 440h102l-203 -670h-6l-235 495l-237 -495h-6l-199 670h100l127 -440l212 460h6z" />
    <glyph glyph-name="X" unicode="X" horiz-adv-x="658" 
d="M142 0h-112l243 335l-223 315h117l162 -247l167 247h112l-225 -312l245 -338h-117l-183 265z" />
    <glyph glyph-name="Y" unicode="Y" horiz-adv-x="622" 
d="M494 650h103l-238 -423v-227h-96v227l-238 423h103l183 -338z" />
    <glyph glyph-name="Z" unicode="Z" horiz-adv-x="588" 
d="M558 650v-5l-372 -559h363v-86h-519v5l372 560h-342v85h498z" />
    <glyph glyph-name="bracketleft" unicode="[" horiz-adv-x="300" 
d="M75 703h210v-81h-122v-692h122v-80h-210v853z" />
    <glyph glyph-name="backslash" unicode="\" horiz-adv-x="450" 
d="M450 -91l-77 -37l-373 785l77 38z" />
    <glyph glyph-name="bracketright" unicode="]" horiz-adv-x="300" 
d="M136 622h-121v81h210v-853h-210v80h121v692z" />
    <glyph glyph-name="asciicircum" unicode="^" horiz-adv-x="484" 
d="M90 378l-60 54l213 238l211 -237l-59 -55l-152 178z" />
    <glyph glyph-name="underscore" unicode="_" horiz-adv-x="565" 
d="M500 0h-435v80h435v-80z" />
    <glyph glyph-name="grave" unicode="`" horiz-adv-x="202" 
d="M125 446l-115 204h104l83 -204h-72z" />
    <glyph glyph-name="a" unicode="a" horiz-adv-x="505" 
d="M113 349l-42 60c53 44 112 66 178 66c117 0 186 -60 186 -188v-287h-81l-2 58c-41 -49 -96 -73 -165 -73c-93 0 -152 54 -152 137c-3 79 50 122 107 144c19 8 41 14 67 17c52 7 84 8 135 8c3 67 -35 109 -99 109c-49 0 -93 -17 -132 -51zM344 123v103
c-82 0 -138 -8 -169 -25c-30 -17 -45 -41 -45 -73c0 -46 28 -69 84 -69c49 0 93 21 130 64z" />
    <glyph glyph-name="b" unicode="b" 
d="M153 84v-84h-83v650h91v-261c31 57 84 85 159 85c64 0 115 -22 154 -67c39 -44 59 -103 59 -178c0 -149 -84 -244 -213 -244c-67 0 -131 32 -167 99zM157 229c1 -100 57 -167 142 -167c45 0 79 16 104 47c25 32 37 72 37 120s-12 88 -37 119c-25 32 -59 48 -104 48
c-89 0 -142 -67 -142 -167z" />
    <glyph glyph-name="c" unicode="c" horiz-adv-x="518" 
d="M283 63c59 0 102 21 129 62l61 -52c-44 -59 -107 -88 -190 -88c-72 0 -130 22 -173 67s-65 103 -65 176s22 133 65 178c44 46 102 69 173 69c81 0 143 -29 187 -88l-60 -53c-29 43 -72 64 -127 64c-45 0 -80 -16 -107 -49c-27 -32 -40 -72 -40 -119s13 -87 40 -119
s62 -48 107 -48z" />
    <glyph glyph-name="d" unicode="d" 
d="M508 0h-84v84c-35 -67 -99 -99 -166 -99c-129 0 -213 95 -213 244c0 75 19 134 58 178c39 45 91 67 155 67c75 0 128 -28 159 -85v261h91v-650zM421 229c0 100 -52 167 -143 167c-88 0 -140 -71 -140 -167s52 -167 140 -167c85 0 140 66 143 167z" />
    <glyph glyph-name="e" unicode="e" horiz-adv-x="533" 
d="M45 228c0 73 21 133 64 178c43 46 96 69 158 69c143 0 221 -90 221 -242v-30h-352c3 -85 63 -141 146 -141c59 0 107 21 143 64l54 -52c-45 -59 -111 -89 -198 -89c-152 0 -236 95 -236 243zM270 398c-68 0 -120 -48 -131 -127h259c-7 85 -50 127 -128 127z" />
    <glyph glyph-name="f" unicode="f" horiz-adv-x="360" 
d="M112 0v389h-77v71h77v55c0 80 48 133 132 133c31 0 61 -6 91 -18l-15 -69c-15 6 -35 9 -62 9c-44 0 -55 -23 -55 -76v-34h101v-71h-101v-389h-91z" />
    <glyph glyph-name="g" unicode="g" horiz-adv-x="584" 
d="M68 301c0 108 76 174 212 174c61 0 109 -13 145 -40c25 24 53 36 86 36c24 0 43 -4 58 -11c-1 -7 -8 -31 -19 -72c-29 16 -56 17 -83 3c17 -26 25 -56 25 -90c0 -108 -76 -174 -212 -174c-35 0 -67 5 -96 14c-33 -1 -46 -22 -46 -42c0 -29 20 -40 108 -40h105
c103 -1 169 -48 169 -147c0 -93 -82 -161 -222 -161h-27c-143 0 -210 67 -210 154c0 41 20 81 47 98c-32 18 -48 46 -48 85c0 40 26 79 61 88c-35 32 -53 74 -53 125zM153 301c0 -71 42 -106 126 -106s126 35 126 106s-42 107 -126 107c-79 0 -126 -35 -126 -107zM176 -17
c-24 -12 -39 -47 -36 -75c4 -47 47 -78 134 -78h21c92 0 138 28 138 84c0 45 -37 68 -111 68h-129c-8 0 -14 0 -17 1z" />
    <glyph glyph-name="h" unicode="h" horiz-adv-x="553" 
d="M161 235v-235h-91v650h91v-279c29 71 90 104 154 104c112 0 168 -67 168 -200v-275h-91v260c0 96 -25 138 -98 138c-39 0 -71 -16 -96 -48s-37 -70 -37 -115z" />
    <glyph glyph-name="i" unicode="i" horiz-adv-x="231" 
d="M161 0h-91v460h91v-460zM73 577c-21 23 -21 61 0 84c23 23 61 23 84 0s23 -61 0 -84c-23 -21 -61 -21 -84 0z" />
    <glyph glyph-name="j" unicode="j" horiz-adv-x="231" 
d="M70 460h91v-490c0 -105 -42 -158 -127 -158c-28 0 -48 4 -61 13l13 68c10 -4 21 -6 33 -6c34 0 51 28 51 83v490zM73 577c-21 23 -21 61 0 84c23 23 61 23 84 0s23 -61 0 -84c-23 -21 -61 -21 -84 0z" />
    <glyph glyph-name="k" unicode="k" horiz-adv-x="500" 
d="M70 650h91v-405l191 215h113l-206 -216v-6l221 -238h-118l-201 230v-230h-91v650z" />
    <glyph glyph-name="l" unicode="l" horiz-adv-x="231" 
d="M70 650h91v-650h-91v650z" />
    <glyph glyph-name="m" unicode="m" horiz-adv-x="795" 
d="M443 245v-245h-91v260c0 91 -23 135 -84 135s-107 -61 -107 -150v-245h-91v460h86v-86c33 68 87 101 139 101c65 0 112 -24 133 -103h5c28 68 83 103 144 103c99 0 148 -67 148 -200v-275h-91v260c0 91 -23 135 -84 135s-107 -61 -107 -150z" />
    <glyph glyph-name="n" unicode="n" horiz-adv-x="553" 
d="M161 235v-235h-91v460h83v-94c33 73 87 109 162 109c112 0 168 -67 168 -200v-275h-91v260c0 96 -25 138 -98 138c-39 0 -71 -16 -96 -48s-37 -70 -37 -115z" />
    <glyph glyph-name="o" unicode="o" horiz-adv-x="564" 
d="M45 230c0 73 22 132 65 177s101 68 172 68s129 -23 172 -68s65 -104 65 -177s-22 -133 -65 -178s-100 -67 -172 -67s-130 22 -173 67s-64 105 -64 178zM136 230c0 -47 13 -87 39 -119c27 -32 62 -48 107 -48s80 16 106 48c27 32 40 72 40 119c0 96 -55 168 -146 168
c-89 0 -146 -72 -146 -168z" />
    <glyph glyph-name="p" unicode="p" 
d="M70 460h83v-84c36 67 100 99 167 99c65 0 116 -22 155 -67c39 -44 58 -103 58 -178c0 -149 -84 -244 -213 -244c-75 0 -128 28 -159 85v-255h-91v644zM157 230c0 -100 53 -167 142 -167s141 71 141 167c0 97 -52 168 -141 168c-85 0 -141 -67 -142 -168z" />
    <glyph glyph-name="q" unicode="q" 
d="M424 376v84h84v-644h-91v255c-31 -57 -84 -85 -159 -85c-129 0 -213 95 -213 244c0 75 19 134 58 178c39 45 90 67 155 67c67 0 131 -32 166 -99zM421 230c-3 101 -58 168 -143 168c-88 0 -140 -72 -140 -168s52 -167 140 -167c91 0 143 67 143 167z" />
    <glyph glyph-name="r" unicode="r" horiz-adv-x="412" 
d="M161 210v-210h-91v460h86v-112c30 83 85 125 164 125c24 0 43 -4 57 -12l-13 -81c-13 5 -28 7 -44 7c-47 0 -85 -17 -115 -52c-29 -34 -44 -76 -44 -125z" />
    <glyph glyph-name="s" unicode="s" horiz-adv-x="473" 
d="M409 421l-39 -64c-45 31 -89 46 -134 46c-48 0 -90 -19 -90 -60c0 -20 10 -29 25 -39c8 -5 29 -11 40 -15c12 -3 41 -9 54 -13c56 -15 78 -23 113 -44c36 -21 50 -55 50 -103c0 -83 -71 -144 -186 -144c-81 0 -158 32 -198 88l47 56c44 -47 94 -71 151 -71
c55 0 99 22 99 71c0 23 -8 38 -32 49c-23 11 -36 14 -77 25c-31 8 -54 15 -71 20c-16 6 -33 14 -52 25c-36 21 -50 52 -50 97c0 87 77 130 177 130c75 0 132 -18 173 -54z" />
    <glyph glyph-name="t" unicode="t" horiz-adv-x="363" 
d="M50 389v71h63v120h91v-120h90v-71h-90v-250v-6c0 -51 -1 -65 43 -71c21 0 37 2 49 7l12 -69c-20 -10 -47 -15 -81 -15c-89 0 -114 46 -114 133v271h-63z" />
    <glyph glyph-name="u" unicode="u" horiz-adv-x="553" 
d="M392 225v235h91v-460h-84v94c-33 -73 -85 -109 -156 -109c-85 0 -173 39 -173 200v275h91v-260c0 -95 28 -138 103 -138c39 0 70 16 93 47c23 32 35 71 35 116z" />
    <glyph glyph-name="v" unicode="v" horiz-adv-x="514" 
d="M111 460l147 -309l145 309h96l-239 -475h-6l-239 475h96z" />
    <glyph glyph-name="w" unicode="w" horiz-adv-x="748" 
d="M377 475l156 -308l102 293h93l-172 -475h-6l-176 329l-176 -329h-6l-172 475h92l102 -293l157 308h6z" />
    <glyph glyph-name="x" unicode="x" horiz-adv-x="511" 
d="M137 0h-107l173 240l-158 220h107l103 -160l103 160h108l-160 -220l175 -240h-108l-118 179z" />
    <glyph glyph-name="y" unicode="y" horiz-adv-x="510" 
d="M391 460h94l-247 -644h-100l76 184l-189 460h98l139 -361z" />
    <glyph glyph-name="z" unicode="z" horiz-adv-x="485" 
d="M25 5l269 377h-239v78h385v-5l-269 -377h259v-78h-405v5z" />
    <glyph glyph-name="braceleft" unicode="{" horiz-adv-x="298" 
d="M30 244v61c28 0 63 36 63 76v180c0 119 67 163 175 142v-83c-65 19 -89 -7 -89 -80v-167c0 -41 -20 -73 -60 -98c40 -25 60 -57 60 -98v-164c0 -73 24 -99 89 -80v-83c-108 -21 -175 23 -175 142v176c0 40 -35 76 -63 76z" />
    <glyph glyph-name="bar" unicode="|" horiz-adv-x="228" 
d="M70 703h88v-853h-88v853z" />
    <glyph glyph-name="braceright" unicode="}" horiz-adv-x="298" 
d="M268 305v-61c-28 0 -63 -36 -63 -76v-176c0 -119 -67 -163 -175 -142v83c65 -19 89 7 89 80v164c0 41 20 73 60 98c-40 25 -60 57 -60 98v167c0 73 -24 99 -89 80v83c108 21 175 -23 175 -142v-180c0 -40 35 -76 63 -76z" />
    <glyph glyph-name="asciitilde" unicode="~" horiz-adv-x="612" 
d="M227 313l160 -53c69 -23 102 -1 100 65l80 -21c-8 -111 -69 -164 -182 -127l-160 53c-69 23 -102 -1 -100 -70l-80 21c8 111 66 163 182 132z" />
    <glyph glyph-name="sterling" unicode="&#xa3;" horiz-adv-x="633" 
d="M141 355h-106v73h93c-1 14 -1 28 0 42c11 120 92 196 217 196c79 0 144 -26 194 -78l-61 -69c-37 45 -74 63 -133 63c-67 0 -110 -45 -118 -110c-3 -14 -4 -29 -3 -44h186v-73h-172c1 -4 12 -35 15 -47h157v-78h-151c0 -27 -5 -54 -14 -83c15 2 28 1 41 -2
c10 -3 21 -7 34 -13c25 -11 63 -32 78 -39c63 -32 101 -12 100 57l80 -21c-4 -57 -22 -98 -54 -125s-75 -27 -128 -2l-96 46c-63 31 -101 8 -100 -63l-80 21c1 21 7 46 10 57l18 50c16 46 25 85 26 117h-139v78h126c-4 8 -11 24 -20 47z" />
    <glyph glyph-name="currency" unicode="&#xa4;" horiz-adv-x="499" 
d="M137 45l-82 40l55 104c-35 36 -52 83 -52 141c0 59 17 106 52 142l-55 103l82 40l51 -100c24 5 44 8 61 8c22 0 42 -3 60 -8l53 100l82 -40l-56 -103c36 -36 54 -83 54 -142s-18 -107 -55 -142l57 -103l-82 -40l-53 100c-32 -9 -88 -9 -120 0zM144 330
c0 -80 42 -123 105 -123s106 43 106 123c0 81 -42 123 -106 123c-63 0 -105 -42 -105 -123z" />
    <glyph glyph-name="brokenbar" unicode="&#xa6;" horiz-adv-x="228" 
d="M158 233v-383h-88v383h88zM70 703h88v-385h-88v385z" />
    <glyph glyph-name="section" unicode="&#xa7;" horiz-adv-x="457" 
d="M60 76l56 46c21 -40 58 -60 111 -60c55 0 85 23 85 51c0 81 -248 75 -248 225c0 38 16 73 49 104c-35 24 -53 52 -53 85c0 45 17 80 50 103s72 35 115 35c81 0 148 -41 172 -92l-56 -46c-21 40 -58 60 -111 60c-55 0 -85 -23 -85 -51c0 -81 248 -75 248 -225
c0 -38 -17 -73 -50 -105c36 -25 54 -53 54 -84c0 -45 -17 -80 -50 -103s-72 -35 -115 -35c-81 0 -148 41 -172 92zM309 309c0 17 -10 32 -22 43c-24 20 -52 32 -88 48l-14 6c-25 -21 -38 -43 -38 -66c0 -14 6 -27 18 -39c24 -24 47 -34 96 -54c3 -2 5 -2 10 -4
c25 20 38 42 38 66z" />
    <glyph glyph-name="copyright" unicode="&#xa9;" horiz-adv-x="579" 
d="M116 57c-47 48 -71 106 -71 173s24 125 71 173c48 48 106 72 173 72s125 -24 173 -72s72 -106 72 -173s-24 -125 -72 -173s-106 -72 -173 -72s-125 24 -173 72zM161 357c-35 -35 -52 -77 -52 -127s17 -93 52 -128s77 -53 128 -53s93 18 128 53s52 78 52 128
s-17 92 -52 127s-77 53 -128 53s-93 -18 -128 -53zM290 147c33 0 62 21 74 48l51 -31c-24 -45 -72 -75 -125 -75c-39 0 -72 14 -100 41c-27 28 -41 61 -41 100s14 72 41 99c28 28 61 42 100 42c53 0 101 -31 125 -76l-51 -32c-12 27 -39 50 -74 50c-47 0 -81 -36 -81 -83
s34 -83 81 -83z" />
    <glyph glyph-name="guillemotleft" unicode="&#xab;" horiz-adv-x="460" 
d="M213 5l-183 235l183 235l65 -48l-150 -187l150 -187zM292 240l128 -153l-62 -49l-163 202l163 192l62 -51z" />
    <glyph glyph-name="uni00AD" unicode="&#xad;" horiz-adv-x="435" 
d="M385 203h-335v78h335v-78z" />
    <glyph glyph-name="registered" unicode="&#xae;" horiz-adv-x="569" 
d="M399 114h-67l-32 75h-54v-75h-58v228h125c43 -1 76 -36 76 -77c0 -29 -12 -51 -37 -66zM330 265c0 23 -13 35 -38 35h-46v-69h46c25 0 38 11 38 34zM111 57c-47 48 -71 106 -71 173s24 125 71 173c48 48 106 72 173 72s125 -24 173 -72s72 -106 72 -173
s-24 -125 -72 -173s-106 -72 -173 -72s-125 24 -173 72zM156 357c-35 -35 -52 -77 -52 -127s17 -93 52 -128s77 -53 128 -53s93 18 128 53s52 78 52 128s-17 92 -52 127s-77 53 -128 53s-93 -18 -128 -53z" />
    <glyph glyph-name="degree" unicode="&#xb0;" horiz-adv-x="259" 
d="M244 550c0 -65 -48 -114 -115 -114c-33 0 -60 11 -82 32c-21 21 -32 49 -32 82s11 61 32 82c22 22 49 33 82 33c65 0 115 -48 115 -115zM75 550c0 -33 22 -54 54 -54s53 21 53 54c8 71 -113 69 -107 0z" />
    <glyph glyph-name="plusminus" unicode="&#xb1;" horiz-adv-x="530" 
d="M221 326h-161v83h161v146h88v-146h161v-83h-161v-146h-88v146zM470 61h-410v83h410v-83z" />
    <glyph glyph-name="paragraph" unicode="&#xb6;" horiz-adv-x="521" 
d="M210 703h86v-853h-86v483c-51 0 -94 18 -131 54c-36 37 -54 80 -54 131s18 94 54 130c37 37 80 55 131 55zM360 703h91v-853h-91v853z" />
    <glyph glyph-name="middot" unicode="&#xe00c;" horiz-adv-x="257" 
d="M86 204c-21 23 -21 61 0 84c23 23 61 23 84 0s23 -61 0 -84c-23 -21 -61 -21 -84 0z" />
    <glyph glyph-name="guillemotright" unicode="&#xbb;" horiz-adv-x="460" 
d="M181 427l65 48l184 -235l-184 -235l-65 48l151 187zM265 240l-163 -202l-62 49l128 153l-128 141l62 51z" />
    <glyph glyph-name="afii10023" unicode="&#x401;" horiz-adv-x="549" 
d="M504 0h-434v650h424v-83h-328v-195h273v-80h-273v-210h338v-82zM131 742c-21 23 -21 61 0 84c23 23 61 23 84 0s23 -61 0 -84c-23 -21 -61 -21 -84 0zM351 742c-21 23 -21 61 0 84c23 23 61 23 84 0s23 -61 0 -84c-23 -21 -61 -21 -84 0z" />
    <glyph glyph-name="afii10051" unicode="&#x402;" horiz-adv-x="686" 
d="M40 650h417v-78h-163v-201c29 71 90 104 154 104c112 0 168 -67 168 -200v-132c0 -105 -42 -158 -127 -158c-28 0 -48 4 -61 13l13 68c10 -4 21 -6 33 -6c34 0 51 28 51 83v117c0 96 -25 138 -98 138c-38 0 -69 -15 -94 -46s-38 -68 -39 -111v-241h-91v572h-163v78z" />
    <glyph glyph-name="afii10052" unicode="&#x403;" horiz-adv-x="509" 
d="M283 924h99l-90 -204h-77c45 136 67 204 68 204zM70 650h399v-83h-303v-567h-96v650z" />
    <glyph glyph-name="afii10053" unicode="&#x404;" horiz-adv-x="651" 
d="M353 585c-111 0 -196 -78 -212 -210h306l2 -75h-311c5 -75 27 -134 66 -175c40 -41 90 -61 149 -61c77 0 136 35 179 104l74 -48c-55 -90 -140 -135 -253 -135c-94 0 -169 30 -225 91c-55 61 -83 144 -83 249s28 187 83 248c56 61 131 92 225 92c111 0 195 -43 252 -130
l-73 -53c-43 69 -102 103 -179 103z" />
    <glyph glyph-name="afii10054" unicode="&#x405;" horiz-adv-x="594" 
d="M549 180c0 -62 -24 -110 -73 -144s-109 -51 -181 -51c-49 0 -97 9 -144 26s-83 47 -108 88l62 63c41 -60 118 -90 190 -90c95 0 153 40 153 108c0 29 -11 51 -32 66s-57 30 -110 44c-67 17 -98 28 -145 49c-64 32 -90 72 -95 151c0 107 88 175 232 175
c103 0 178 -26 225 -77l-56 -69c-48 41 -104 62 -169 62c-83 0 -131 -37 -131 -90c0 -29 10 -51 29 -65c19 -13 56 -27 109 -42l15 -4l50 -14c11 -3 27 -8 46 -15s34 -13 44 -19c20 -12 52 -34 65 -57s24 -56 24 -95z" />
    <glyph glyph-name="uni0406" unicode="&#x406;" horiz-adv-x="236" 
d="M70 650h96v-650h-96v650z" />
    <glyph glyph-name="afii10056" unicode="&#x407;" horiz-adv-x="236" 
d="M-9 747c-23 23 -23 61 0 84s62 23 83 0c23 -23 23 -61 0 -84c-21 -21 -60 -21 -83 0zM161 747c-23 23 -23 61 0 84s62 23 83 0c23 -23 23 -61 0 -84c-21 -21 -60 -21 -83 0zM70 650h96v-650h-96v650z" />
    <glyph glyph-name="afii10057" unicode="&#x408;" horiz-adv-x="388" 
d="M222 650h96v-470c0 -129 -65 -195 -168 -195c-48 0 -88 13 -120 40l33 78c29 -21 55 -31 78 -31c54 0 81 43 81 130v448z" />
    <glyph glyph-name="afii10058" unicode="&#x409;" horiz-adv-x="938" 
d="M151 650h397v-231h102c152 0 248 -69 248 -213c0 -137 -83 -206 -248 -206h-193v572h-219v-159c0 -129 -8 -215 -33 -295c-24 -80 -72 -124 -144 -132c-9 -1 -38 0 -51 1v77c19 -1 34 -1 43 1c16 3 30 11 41 22c24 24 37 73 45 110c4 19 7 43 8 74c2 31 3 54 3 69
c1 15 1 38 1 67v243zM628 344h-80v-269h80c106 0 179 21 179 131c0 103 -63 138 -179 138z" />
    <glyph glyph-name="afii10059" unicode="&#x40a;" horiz-adv-x="929" 
d="M449 650h90v-231h102c152 0 248 -69 248 -213c0 -137 -83 -206 -248 -206h-192v295h-288v-295h-91v650h91v-283h288v283zM619 344h-80v-269h80c106 0 179 21 179 131c0 103 -63 138 -179 138z" />
    <glyph glyph-name="afii10060" unicode="&#x40b;" horiz-adv-x="686" 
d="M40 650h417v-78h-163v-201c29 71 90 104 154 104c112 0 168 -67 168 -200v-275h-91v260c0 96 -25 138 -98 138c-38 0 -69 -15 -94 -46s-38 -68 -39 -111v-241h-91v572h-163v78z" />
    <glyph glyph-name="afii10061" unicode="&#x40c;" horiz-adv-x="623" 
d="M70 650h96v-306l280 306h117l-296 -310v-7l326 -333h-125l-302 324v-324h-96v650zM323 924h99l-90 -204h-77c45 136 67 204 68 204z" />
    <glyph glyph-name="afii10062" unicode="&#x40e;" horiz-adv-x="627" 
d="M499 650h97l-305 -650h-104l90 180l-247 470h105l191 -371zM401 862h91c0 -55 -17 -96 -50 -122c-33 -25 -74 -38 -121 -38s-87 13 -120 38c-33 26 -49 67 -49 122h90c0 -61 27 -92 80 -92s79 31 79 92z" />
    <glyph glyph-name="afii10145" unicode="&#x40f;" horiz-adv-x="660" 
d="M166 82h328v568h96v-650h-212v-156h-96v156h-212v650h96v-568z" />
    <glyph glyph-name="afii10017" unicode="&#x410;" horiz-adv-x="657" 
d="M637 0h-98l-62 138h-299l-60 -138h-98l305 670h6zM447 210l-120 274l-118 -274h238z" />
    <glyph glyph-name="afii10018" unicode="&#x411;" horiz-adv-x="601" 
d="M70 650h429v-83h-333v-163h150c144 0 240 -58 240 -198c0 -71 -22 -123 -67 -156s-102 -50 -173 -50h-246v650zM286 324h-120v-244h120c116 0 174 27 174 126c0 51 -15 83 -50 98c-33 16 -67 20 -124 20z" />
    <glyph glyph-name="afii10019" unicode="&#x412;" horiz-adv-x="615" 
d="M339 0h-269v650h243c151 0 226 -60 226 -159c0 -69 -34 -130 -106 -147v-5c88 -12 137 -82 137 -159c0 -107 -78 -180 -231 -180zM315 294h-149v-219h159c98 0 147 37 147 111c0 72 -52 108 -157 108zM166 575v-204h129c101 0 147 33 147 108c0 64 -48 96 -143 96h-133z
" />
    <glyph glyph-name="afii10020" unicode="&#x413;" horiz-adv-x="509" 
d="M70 650h399v-83h-303v-567h-96v650z" />
    <glyph glyph-name="afii10021" unicode="&#x414;" horiz-adv-x="691" 
d="M111 -156h-96v238h20c80 0 120 125 120 376v192h445v-568h76v-238h-96v156h-469v-156zM504 567h-256v-80c0 -35 0 -64 -1 -85c0 -21 -2 -52 -5 -94c-3 -41 -7 -75 -13 -102c-12 -52 -38 -109 -73 -124h348v485z" />
    <glyph glyph-name="afii10022" unicode="&#x415;" horiz-adv-x="549" 
d="M504 0h-434v650h424v-83h-328v-195h273v-80h-273v-210h338v-82z" />
    <glyph glyph-name="afii10024" unicode="&#x416;" horiz-adv-x="920" 
d="M171 650l241 -306v306h96v-306l240 306h117l-258 -310v-7l283 -333h-125l-257 324v-324h-96v324l-258 -324h-124l282 333v7l-258 310h117z" />
    <glyph glyph-name="afii10025" unicode="&#x417;" horiz-adv-x="620" 
d="M44 106l60 61c55 -65 120 -97 195 -97c109 0 176 47 176 123c0 48 -22 81 -59 96c-36 15 -69 19 -117 19h-58v79h53c101 0 152 33 152 100c0 64 -51 96 -153 96c-63 0 -131 -28 -172 -88l-60 60c27 40 63 68 108 85s89 25 134 25c149 0 241 -61 241 -169
c0 -69 -37 -131 -116 -142v-6c98 -17 147 -70 147 -159c0 -57 -23 -105 -69 -145c-45 -39 -112 -59 -199 -59c-119 0 -206 40 -263 121z" />
    <glyph glyph-name="afii10026" unicode="&#x418;" horiz-adv-x="684" 
d="M518 0v460l-443 -480h-5v670h96v-459l443 479h5v-670h-96z" />
    <glyph glyph-name="afii10027" unicode="&#x419;" horiz-adv-x="684" 
d="M421 862h90c0 -55 -17 -96 -50 -122c-33 -25 -74 -38 -121 -38s-87 13 -120 38c-33 26 -49 67 -49 122h91c0 -61 26 -92 79 -92s80 31 80 92zM518 0v460l-443 -480h-5v670h96v-459l443 479h5v-670h-96z" />
    <glyph glyph-name="afii10028" unicode="&#x41a;" horiz-adv-x="623" 
d="M70 650h96v-306l280 306h117l-296 -310v-7l326 -333h-125l-302 324v-324h-96v650z" />
    <glyph glyph-name="afii10029" unicode="&#x41b;" horiz-adv-x="673" 
d="M507 567h-264v-154c0 -127 -9 -216 -36 -296c-25 -79 -74 -123 -146 -131c-9 -1 -38 0 -51 1v82c19 -1 34 -1 43 1c16 3 30 11 41 22c24 24 37 73 45 110c4 19 7 43 8 74c2 31 3 54 3 69c1 15 1 38 1 67v238h452v-650h-96v567z" />
    <glyph glyph-name="afii10030" unicode="&#x41c;" horiz-adv-x="786" 
d="M396 132h-6l-224 297v-429h-96v670h5l318 -407l318 407h5v-670h-95v429z" />
    <glyph glyph-name="afii10031" unicode="&#x41d;" horiz-adv-x="664" 
d="M499 292h-333v-292h-96v650h96v-280h333v280h95v-650h-95v292z" />
    <glyph glyph-name="afii10032" unicode="&#x41e;" horiz-adv-x="717" 
d="M129 77c-56 62 -84 145 -84 248s28 186 84 247c57 62 133 93 229 93s172 -31 229 -93c57 -61 85 -144 85 -247s-28 -186 -85 -248c-57 -61 -133 -92 -229 -92s-172 31 -229 92zM143 325c0 -78 19 -140 58 -187c39 -46 92 -69 157 -69c66 0 118 23 157 69s59 108 59 187
c0 157 -84 255 -216 255c-65 0 -118 -23 -157 -69c-39 -45 -58 -107 -58 -186z" />
    <glyph glyph-name="afii10033" unicode="&#x41f;" horiz-adv-x="667" 
d="M501 567h-335v-567h-96v650h527v-650h-96v567z" />
    <glyph glyph-name="afii10034" unicode="&#x420;" horiz-adv-x="581" 
d="M288 231h-122v-231h-96v650h218c165 0 248 -69 248 -206c0 -144 -96 -213 -248 -213zM166 569v-259h100c117 0 174 34 174 134c0 97 -57 125 -174 125h-100z" />
    <glyph glyph-name="afii10035" unicode="&#x421;" horiz-adv-x="661" 
d="M143 325c0 -83 20 -146 61 -190s93 -66 156 -66c80 0 141 34 184 101l72 -51c-55 -89 -140 -134 -257 -134c-95 0 -171 30 -228 90s-86 142 -86 246c0 105 29 188 86 250c57 63 133 94 227 94c113 0 197 -43 253 -130l-72 -54c-42 66 -102 99 -181 99
c-63 0 -114 -22 -155 -67c-40 -44 -60 -107 -60 -188z" />
    <glyph glyph-name="afii10036" unicode="&#x422;" horiz-adv-x="597" 
d="M40 650h517v-83h-211v-567h-96v567h-210v83z" />
    <glyph glyph-name="afii10037" unicode="&#x423;" horiz-adv-x="627" 
d="M499 650h97l-305 -650h-104l90 180l-247 470h105l191 -371z" />
    <glyph glyph-name="afii10038" unicode="&#x424;" horiz-adv-x="762" 
d="M334 581v69h96v-69c180 0 297 -87 297 -256s-117 -255 -297 -255v-70h-96v70c-183 0 -299 86 -299 255c0 85 27 148 81 191s127 65 218 65zM334 150v350c-132 0 -203 -51 -203 -175s71 -175 203 -175zM430 500v-350c133 0 201 52 201 175c0 124 -68 175 -201 175z" />
    <glyph glyph-name="afii10039" unicode="&#x425;" horiz-adv-x="658" 
d="M142 0h-112l243 335l-223 315h117l162 -247l167 247h112l-225 -312l245 -338h-117l-183 265z" />
    <glyph glyph-name="afii10040" unicode="&#x426;" horiz-adv-x="681" 
d="M570 0h-500v650h96v-568h328v568h96v-568h76v-238h-96v156z" />
    <glyph glyph-name="afii10041" unicode="&#x427;" horiz-adv-x="620" 
d="M51 432l-1 218h96v-185c0 -73 14 -119 42 -142c29 -21 56 -27 101 -27c61 0 116 20 165 59v295h96v-650h-96v277c-57 -41 -118 -62 -185 -62c-109 0 -218 48 -218 217z" />
    <glyph glyph-name="afii10042" unicode="&#x428;" horiz-adv-x="904" 
d="M500 82h238v568h96v-650h-764v650h96v-568h238v568h96v-568z" />
    <glyph glyph-name="afii10043" unicode="&#x429;" horiz-adv-x="925" 
d="M500 82h238v568h96v-568h76v-238h-96v156h-744v650h96v-568h238v568h96v-568z" />
    <glyph glyph-name="afii10044" unicode="&#x42a;" horiz-adv-x="657" 
d="M146 565h-131v85h227v-221h123c152 0 252 -74 252 -218c0 -143 -99 -211 -252 -211h-219v565zM342 349h-100v-269h100c106 0 179 21 179 131c0 103 -63 138 -179 138z" />
    <glyph glyph-name="afii10045" unicode="&#x42b;" horiz-adv-x="806" 
d="M640 650h96v-650h-96v650zM70 650h96v-221h117c152 0 253 -74 253 -218c0 -143 -98 -211 -253 -211h-213v650zM261 349h-95v-269h95c106 0 179 21 179 131c0 103 -63 138 -179 138z" />
    <glyph glyph-name="afii10046" unicode="&#x42c;" horiz-adv-x="581" 
d="M70 650h96v-221h122c152 0 253 -74 253 -218c0 -143 -98 -211 -253 -211h-218v650zM266 349h-100v-269h100c106 0 179 21 179 131c0 103 -63 138 -179 138z" />
    <glyph glyph-name="afii10047" unicode="&#x42d;" horiz-adv-x="661" 
d="M517 300h-311v75h309c-15 132 -91 205 -204 205c-84 0 -147 -33 -189 -99l-72 54c56 87 143 130 261 130c95 0 169 -30 223 -91c55 -61 82 -144 82 -249s-28 -188 -83 -249s-131 -91 -226 -91c-120 0 -207 45 -262 134l72 51c43 -67 106 -101 189 -101
c121 0 203 82 211 231z" />
    <glyph glyph-name="afii10048" unicode="&#x42e;" horiz-adv-x="952" 
d="M291 292h-125v-292h-96v650h96v-280h126c8 90 40 162 95 215s126 80 211 80c93 0 167 -31 224 -93s85 -144 85 -247s-28 -185 -85 -247s-131 -93 -224 -93c-87 0 -159 28 -215 83c-55 56 -86 131 -92 224zM598 69c64 0 115 23 153 69c39 47 58 109 58 187
c0 79 -19 141 -58 186c-38 46 -89 69 -153 69s-115 -23 -154 -68s-58 -107 -58 -187s19 -143 58 -188s91 -68 154 -68z" />
    <glyph glyph-name="afii10049" unicode="&#x42f;" horiz-adv-x="616" 
d="M546 0h-96v226h-128c-16 0 -29 1 -38 2l-135 -228h-114l156 249c-75 31 -121 97 -121 192c0 143 97 209 252 209h224v-650zM345 305h105v264h-105c-117 0 -179 -31 -179 -128c0 -100 62 -136 179 -136z" />
    <glyph glyph-name="afii10065" unicode="&#x430;" horiz-adv-x="505" 
d="M113 349l-42 60c53 44 112 66 178 66c117 0 186 -60 186 -188v-287h-81l-2 57c-44 -48 -99 -72 -165 -72c-93 0 -152 54 -152 137c-3 79 50 122 107 144c19 8 41 14 67 17c52 7 84 8 135 8c3 67 -35 109 -99 109c-49 0 -93 -17 -132 -51zM344 121v105
c-82 0 -138 -8 -169 -25c-30 -17 -45 -41 -45 -73c0 -46 28 -69 84 -69c47 0 91 21 130 62z" />
    <glyph glyph-name="afii10066" unicode="&#x431;" horiz-adv-x="562" 
d="M281 -15c-155 0 -236 105 -236 280c0 242 83 372 249 390l180 17v-87l-163 -12c-112 -13 -162 -73 -183 -182l7 -1c35 55 97 80 154 80c69 0 124 -22 165 -67c42 -45 63 -103 63 -176s-21 -131 -64 -176c-43 -44 -100 -66 -172 -66zM281 63c91 0 145 69 145 164
c0 96 -54 166 -145 166c-45 0 -80 -16 -106 -48c-26 -31 -39 -71 -39 -118c0 -95 56 -164 145 -164z" />
    <glyph glyph-name="afii10067" unicode="&#x432;" horiz-adv-x="496" 
d="M291 0h-221v460h208c96 0 152 -39 152 -111c0 -51 -36 -92 -83 -99v-6c60 -3 109 -45 109 -117c0 -80 -58 -127 -165 -127zM263 210h-102v-143h116c56 0 84 24 84 72c0 45 -38 71 -98 71zM270 393h-109v-115h98c51 0 77 19 77 57c0 39 -22 58 -66 58z" />
    <glyph glyph-name="afii10068" unicode="&#x433;" horiz-adv-x="406" 
d="M371 384h-210v-384h-91v460h301v-76z" />
    <glyph glyph-name="afii10069" unicode="&#x434;" horiz-adv-x="567" 
d="M15 -137v211h21c36 0 72 43 87 110c8 35 13 127 14 276h337v-385h63v-211h-88v136h-346v-137h-88zM382 75v309h-162c0 -1 0 -17 -1 -50c0 -32 -1 -59 -2 -81c-6 -90 -26 -149 -61 -178h226z" />
    <glyph glyph-name="afii10070" unicode="&#x435;" horiz-adv-x="533" 
d="M45 230c0 73 21 132 64 177s96 68 158 68c143 0 221 -90 221 -242v-30h-352c3 -85 63 -141 146 -141c59 0 107 21 143 64l54 -52c-45 -59 -111 -89 -198 -89c-152 0 -236 96 -236 245zM270 398c-68 0 -120 -48 -131 -127h259c-7 85 -50 127 -128 127z" />
    <glyph glyph-name="afii10072" unicode="&#x436;" horiz-adv-x="735" 
d="M150 460l172 -215v215h91v-215l171 215h111l-192 -216v-6l202 -238h-118l-174 230v-230h-91v230l-174 -230h-118l202 238v6l-192 216h110z" />
    <glyph glyph-name="afii10073" unicode="&#x437;" horiz-adv-x="486" 
d="M40 74l49 54c39 -47 88 -70 147 -70c76 0 114 28 114 83c0 46 -36 69 -108 69h-64v68h60c61 0 91 20 91 60c0 43 -34 64 -101 64c-43 0 -95 -22 -124 -58l-48 55c43 51 104 76 182 76c112 0 186 -50 186 -129c0 -20 -8 -40 -23 -60s-36 -31 -62 -34v-4
c67 -4 107 -52 107 -116c0 -81 -66 -147 -206 -147c-91 0 -157 30 -200 89z" />
    <glyph glyph-name="afii10074" unicode="&#x438;" horiz-adv-x="548" 
d="M161 460v-299l311 319h6v-480h-91v299l-311 -319h-6v480h91z" />
    <glyph glyph-name="afii10075" unicode="&#x439;" horiz-adv-x="548" 
d="M161 460v-299l311 319h6v-480h-91v299l-311 -319h-6v480h91zM341 656h77c0 -96 -47 -144 -141 -144c-93 0 -139 48 -139 144h77c0 -53 21 -79 63 -79s63 26 63 79z" />
    <glyph glyph-name="afii10076" unicode="&#x43a;" horiz-adv-x="505" 
d="M70 460h91v-215l191 215h113l-206 -217v-6l221 -237h-118l-201 230v-230h-91v460z" />
    <glyph glyph-name="afii10077" unicode="&#x43b;" horiz-adv-x="537" 
d="M375 0v384h-161v-41c0 -21 0 -38 -1 -50c0 -11 -1 -28 -2 -51c-1 -22 -3 -41 -5 -56c-4 -31 -12 -72 -24 -103c-29 -73 -83 -104 -162 -93v77c61 -7 87 34 99 110c7 42 11 136 11 283h337v-460h-92z" />
    <glyph glyph-name="afii10078" unicode="&#x43c;" horiz-adv-x="654" 
d="M614 0h-89l-47 272l-151 -287h-5l-150 287l-49 -272h-88l95 480h6l189 -350l188 350h6z" />
    <glyph glyph-name="afii10079" unicode="&#x43d;" horiz-adv-x="543" 
d="M382 200h-221v-200h-91v460h91v-185h221v185h91v-460h-91v200z" />
    <glyph glyph-name="afii10080" unicode="&#x43e;" horiz-adv-x="564" 
d="M45 230c0 73 22 132 65 177s101 68 172 68s129 -23 172 -68s65 -104 65 -177s-22 -133 -65 -178s-100 -67 -172 -67s-130 22 -173 67s-64 105 -64 178zM136 230c0 -47 13 -87 39 -119c27 -32 62 -48 107 -48s80 16 106 48c27 32 40 72 40 119c0 96 -55 168 -146 168
c-89 0 -146 -72 -146 -168z" />
    <glyph glyph-name="afii10081" unicode="&#x43f;" horiz-adv-x="540" 
d="M379 384h-218v-384h-91v460h400v-460h-91v384z" />
    <glyph glyph-name="afii10082" unicode="&#x440;" 
d="M70 460h83v-84c36 67 100 99 167 99c65 0 116 -22 155 -67c39 -44 58 -103 58 -178c0 -149 -84 -244 -213 -244c-75 0 -128 28 -159 85v-255h-91v644zM157 230c0 -100 53 -167 142 -167s141 71 141 167c0 97 -52 168 -141 168c-85 0 -141 -67 -142 -168z" />
    <glyph glyph-name="afii10083" unicode="&#x441;" horiz-adv-x="518" 
d="M283 63c59 0 102 20 129 61l61 -51c-44 -59 -107 -88 -190 -88c-72 0 -130 22 -173 67s-65 103 -65 176s22 133 65 178c44 46 102 69 173 69c81 0 143 -29 187 -88l-60 -51c-28 41 -70 62 -127 62c-45 0 -80 -16 -107 -49c-27 -32 -40 -72 -40 -119s13 -87 40 -119
s62 -48 107 -48z" />
    <glyph glyph-name="afii10084" unicode="&#x442;" horiz-adv-x="480" 
d="M194 0v384h-154v76h400v-76h-155v-384h-91z" />
    <glyph glyph-name="afii10085" unicode="&#x443;" horiz-adv-x="513" 
d="M394 460h94l-248 -644h-101l77 184l-191 460h100l140 -361z" />
    <glyph glyph-name="afii10086" unicode="&#x444;" horiz-adv-x="839" 
d="M465 -184h-91v250c-28 -54 -70 -81 -127 -81c-120 0 -192 94 -192 245s72 245 192 245c54 0 96 -26 127 -79v254h91v-254c31 53 73 79 126 79c120 0 193 -93 193 -245c0 -151 -73 -245 -193 -245c-56 0 -98 27 -126 81v-250zM579 400c-67 0 -113 -62 -116 -170
c0 -108 40 -170 116 -170c68 0 112 61 112 170s-43 170 -112 170zM260 60c75 0 116 63 116 170c-3 108 -51 170 -116 170c-69 0 -112 -61 -112 -170s43 -170 112 -170z" />
    <glyph glyph-name="afii10087" unicode="&#x445;" horiz-adv-x="511" 
d="M137 0h-107l173 240l-158 220h107l103 -160l103 160h108l-160 -220l175 -240h-108l-118 179z" />
    <glyph glyph-name="afii10088" unicode="&#x446;" horiz-adv-x="574" 
d="M161 460v-385h217v385h91v-385h75v-211h-88v136h-386v460h91z" />
    <glyph glyph-name="afii10089" unicode="&#x447;" horiz-adv-x="498" 
d="M337 252v208h91v-460h-91v183c-38 -25 -79 -37 -122 -37c-32 0 -54 2 -87 15c-45 20 -83 65 -83 161v138h91v-122c0 -88 26 -119 98 -119c29 0 64 11 103 33z" />
    <glyph glyph-name="afii10090" unicode="&#x448;" horiz-adv-x="728" 
d="M161 460v-385h157v385h92v-385h157v385h91v-460h-588v460h91z" />
    <glyph glyph-name="afii10091" unicode="&#x449;" horiz-adv-x="758" 
d="M658 460v-387h75v-209h-88v136h-575v460h91v-387h157v387h92v-387h157v387h91z" />
    <glyph glyph-name="afii10092" unicode="&#x44a;" horiz-adv-x="526" 
d="M303 0h-181v382h-102v78h194v-148h89c125 0 188 -51 188 -152c0 -107 -71 -160 -188 -160zM214 242v-169h92c61 0 95 32 95 87s-32 82 -95 82h-92z" />
    <glyph glyph-name="afii10093" unicode="&#x44b;" horiz-adv-x="661" 
d="M591 0h-92v460h92v-460zM243 0h-173v460h92v-148h81c125 0 188 -51 188 -152c0 -107 -71 -160 -188 -160zM162 242v-169h85c60 0 94 31 94 87c0 55 -31 82 -94 82h-85z" />
    <glyph glyph-name="afii10094" unicode="&#x44c;" horiz-adv-x="474" 
d="M251 0h-181v460h92v-148h89c125 0 188 -51 188 -152c0 -107 -71 -160 -188 -160zM162 242v-169h92c61 0 95 32 95 87s-32 82 -95 82h-92z" />
    <glyph glyph-name="afii10095" unicode="&#x44d;" horiz-adv-x="518" 
d="M380 204h-204v68h204c-5 76 -63 126 -140 126c-59 0 -104 -21 -133 -62l-58 51c44 59 108 88 191 88c145 0 233 -88 233 -244c0 -75 -21 -135 -64 -180c-42 -44 -99 -66 -171 -66c-81 0 -153 33 -193 88l60 51c29 -41 73 -61 133 -61c81 0 139 60 142 141z" />
    <glyph glyph-name="afii10096" unicode="&#x44e;" horiz-adv-x="750" 
d="M244 200h-83v-200h-91v460h91v-185h85c17 123 102 200 227 200c71 0 128 -23 169 -68c42 -45 63 -104 63 -177s-21 -133 -62 -178s-98 -67 -170 -67c-133 0 -218 84 -229 215zM473 63c89 0 141 71 141 167c0 97 -52 168 -141 168c-88 0 -141 -72 -141 -168
s53 -167 141 -167z" />
    <glyph glyph-name="afii10097" unicode="&#x44f;" horiz-adv-x="508" 
d="M35 0l136 178v4c-59 13 -101 60 -101 131c0 48 16 84 48 109c33 25 72 38 117 38h203v-460h-91v169h-85l-120 -169h-107zM165 312c0 -51 32 -76 97 -76h85v151h-75c-71 0 -107 -25 -107 -75z" />
    <glyph glyph-name="afii10071" unicode="&#x451;" horiz-adv-x="533" 
d="M45 230c0 73 21 132 64 177s96 68 158 68c143 0 221 -90 221 -242v-30h-352c3 -85 63 -141 146 -141c59 0 107 21 143 64l54 -52c-45 -59 -111 -89 -198 -89c-152 0 -236 96 -236 245zM270 398c-68 0 -120 -48 -131 -127h259c-7 85 -50 127 -128 127zM108 577
c-23 23 -23 61 0 84s62 23 83 0c23 -23 23 -61 0 -84c-21 -21 -60 -21 -83 0zM348 577c-23 23 -23 61 0 84s62 23 83 0c23 -23 23 -61 0 -84c-21 -21 -60 -21 -83 0z" />
    <glyph glyph-name="afii10099" unicode="&#x452;" horiz-adv-x="611" 
d="M50 509v71h78v70h91v-70h100v-71h-100v-138c29 71 90 104 154 104c112 0 168 -67 168 -200v-305c0 -105 -42 -158 -127 -158c-28 0 -48 4 -61 13l13 68c10 -4 21 -6 33 -6c34 0 51 28 51 83v290c0 96 -25 138 -98 138c-38 0 -69 -15 -94 -46s-38 -68 -39 -111v-241h-91
v509h-78z" />
    <glyph glyph-name="afii10100" unicode="&#x453;" horiz-adv-x="416" 
d="M381 384h-220v-384h-91v460h311v-76zM229 736h94l-90 -204h-67c41 136 62 204 63 204z" />
    <glyph glyph-name="afii10101" unicode="&#x454;" horiz-adv-x="518" 
d="M283 398c-76 0 -128 -51 -143 -126h202v-68h-205c9 -83 65 -141 146 -141c59 0 102 20 129 61l61 -51c-44 -59 -107 -88 -190 -88c-72 0 -130 22 -173 67s-65 105 -65 178s22 132 65 177c44 45 102 68 173 68c81 0 143 -29 187 -88l-60 -51c-28 41 -70 62 -127 62z" />
    <glyph glyph-name="afii10102" unicode="&#x455;" horiz-adv-x="473" 
d="M409 421l-39 -64c-45 31 -89 46 -134 46c-48 0 -90 -19 -90 -60c0 -20 10 -29 25 -39c8 -5 29 -11 40 -15c12 -3 41 -9 54 -13c56 -15 78 -23 113 -44c36 -21 50 -55 50 -103c0 -83 -71 -144 -186 -144c-81 0 -158 32 -198 88l47 56c44 -47 94 -71 151 -71
c55 0 99 22 99 71c0 23 -8 38 -32 49c-23 11 -36 14 -77 25c-31 8 -54 15 -71 20c-16 6 -33 14 -52 25c-36 21 -50 52 -50 97c0 87 77 130 177 130c75 0 132 -18 173 -54z" />
    <glyph glyph-name="afii10103" unicode="&#x456;" horiz-adv-x="244" 
d="M167 0h-91v460h91v-460zM80 577c-23 23 -23 61 0 84s62 23 83 0c23 -23 23 -61 0 -84c-21 -21 -60 -21 -83 0z" />
    <glyph glyph-name="afii10104" unicode="&#x457;" horiz-adv-x="231" 
d="M161 0h-91v460h91v-460zM-9 577c-23 23 -23 61 0 84s62 23 83 0c23 -23 23 -61 0 -84c-21 -21 -60 -21 -83 0zM156 577c-23 23 -23 61 0 84s62 23 83 0c23 -23 23 -61 0 -84c-21 -21 -60 -21 -83 0z" />
    <glyph glyph-name="afii10105" unicode="&#x458;" horiz-adv-x="237" 
d="M70 460h91v-490c0 -105 -42 -158 -127 -158c-28 0 -48 4 -61 13l13 68c10 -4 21 -6 33 -6c34 0 51 28 51 83v490zM73 577c-21 23 -21 61 0 84c23 23 61 23 84 0s23 -61 0 -84c-23 -21 -61 -21 -84 0z" />
    <glyph glyph-name="afii10106" unicode="&#x459;" horiz-adv-x="779" 
d="M556 0h-181v384h-161v-41c0 -21 0 -38 -1 -50c0 -11 -1 -28 -2 -51c-1 -22 -3 -41 -5 -56c-4 -31 -12 -72 -24 -103c-29 -73 -83 -104 -162 -93v75c51 -5 76 24 92 83c8 28 13 77 16 132c1 27 2 52 2 74c1 23 1 45 1 67c1 23 1 36 1 39h335v-145h89
c125 0 188 -52 188 -155c0 -107 -71 -160 -188 -160zM467 242v-169h92c61 0 95 32 95 87s-32 82 -95 82h-92z" />
    <glyph glyph-name="afii10107" unicode="&#x45a;" horiz-adv-x="785" 
d="M562 0h-180v200h-221v-200h-91v460h91v-185h221v185h91v-145h89c125 0 188 -52 188 -155c0 -107 -71 -160 -188 -160zM473 242v-169h92c61 0 95 32 95 87s-32 82 -95 82h-92z" />
    <glyph glyph-name="afii10108" unicode="&#x45b;" horiz-adv-x="611" 
d="M50 509v71h78v70h91v-70h100v-71h-100v-138c29 71 90 104 154 104c112 0 168 -67 168 -200v-275h-91v260c0 96 -25 138 -98 138c-38 0 -69 -15 -94 -46s-38 -68 -39 -111v-241h-91v509h-78z" />
    <glyph glyph-name="afii10109" unicode="&#x45c;" horiz-adv-x="505" 
d="M70 460h91v-215l191 215h113l-206 -217v-6l221 -237h-118l-201 230v-230h-91v460zM269 736h94l-90 -204h-67c41 136 62 204 63 204z" />
    <glyph glyph-name="afii10110" unicode="&#x45e;" horiz-adv-x="525" 
d="M401 460h94l-246 -644h-100l75 184l-189 460h98l139 -361zM331 656h77c0 -96 -47 -144 -141 -144c-93 0 -139 48 -139 144h77c0 -53 21 -79 63 -79s63 26 63 79z" />
    <glyph glyph-name="afii10193" unicode="&#x45f;" horiz-adv-x="540" 
d="M161 75h218v385h91v-460h-156v-136h-88v136h-156v460h91v-385z" />
    <glyph glyph-name="afii10050" unicode="&#x490;" horiz-adv-x="529" 
d="M400 650v156h89v-239h-323v-567h-96v650h330z" />
    <glyph glyph-name="afii10098" unicode="&#x491;" horiz-adv-x="431" 
d="M315 460v136h81v-212h-235v-384h-91v460h245z" />
    <glyph glyph-name="endash" unicode="&#x2013;" horiz-adv-x="515" 
d="M445 203h-375v78h375v-78z" />
    <glyph glyph-name="emdash" unicode="&#x2014;" horiz-adv-x="755" 
d="M635 203h-515v78h515v-78z" />
    <glyph glyph-name="quoteleft" unicode="&#x2018;" horiz-adv-x="202" 
d="M134 471h-99l70 204h62c-21 -136 -32 -204 -33 -204z" />
    <glyph glyph-name="quoteright" unicode="&#x2019;" horiz-adv-x="202" 
d="M68 650h99l-70 -204h-62c21 136 32 204 33 204z" />
    <glyph glyph-name="quotesinglbase" unicode="&#x201a;" horiz-adv-x="212" 
d="M68 94h99l-70 -204h-62c21 136 32 204 33 204z" />
    <glyph glyph-name="quotedblleft" unicode="&#x201c;" horiz-adv-x="342" 
d="M274 471h-99l70 204h62c-21 -136 -32 -204 -33 -204zM129 471h-99l70 204h62c-21 -136 -32 -204 -33 -204z" />
    <glyph glyph-name="quotedblright" unicode="&#x201d;" horiz-adv-x="342" 
d="M68 650h99l-70 -204h-62c21 136 32 204 33 204zM213 650h99l-70 -204h-62c21 136 32 204 33 204z" />
    <glyph glyph-name="quotedblbase" unicode="&#x201e;" horiz-adv-x="347" 
d="M68 94h99l-70 -204h-62c21 136 32 204 33 204zM213 94h99l-70 -204h-62c21 136 32 204 33 204z" />
    <glyph glyph-name="dagger" unicode="&#x2020;" horiz-adv-x="335" 
d="M131 506l-116 -8v78l116 -9l-9 133h89l-9 -133l118 9v-78l-118 8l9 -305h-89z" />
    <glyph glyph-name="daggerdbl" unicode="&#x2021;" horiz-adv-x="335" 
d="M131 506l-116 -8v78l116 -9l-9 133h89l-9 -133l118 9v-78l-118 8v-109l118 9v-78l-118 8l9 -135h-89l9 135l-116 -8v78l116 -9v109z" />
    <glyph glyph-name="bullet" unicode="&#x2022;" horiz-adv-x="330" 
d="M165 332c48 0 90 -41 90 -90c0 -51 -42 -90 -90 -90c-51 0 -90 42 -90 90s39 90 90 90z" />
    <glyph glyph-name="ellipsis" unicode="&#x2026;" horiz-adv-x="587" 
d="M61 11c-21 23 -21 61 0 84c23 23 61 23 84 0s23 -61 0 -84c-23 -21 -61 -21 -84 0zM441 11c-21 23 -21 61 0 84c23 23 61 23 84 0s23 -61 0 -84c-23 -21 -61 -21 -84 0zM251 11c-21 23 -21 61 0 84c23 23 61 23 84 0s23 -61 0 -84c-23 -21 -61 -21 -84 0z" />
    <glyph glyph-name="perthousand" unicode="&#x2030;" horiz-adv-x="1190" 
d="M69 380c-29 31 -44 71 -44 119s15 88 44 119s68 47 115 47s86 -16 115 -47s44 -71 44 -119s-15 -88 -44 -119s-68 -47 -115 -47s-86 16 -115 47zM101 499c0 -53 32 -91 83 -91c49 0 83 38 83 91c0 55 -34 91 -83 91c-51 0 -83 -36 -83 -91zM514 670l77 -38l-298 -654
l-77 37zM516 32c-29 31 -44 71 -44 119s15 88 44 119s68 47 115 47s86 -16 115 -47s44 -71 44 -119s-15 -88 -44 -119s-68 -47 -115 -47s-86 16 -115 47zM548 151c0 -53 32 -91 83 -91c49 0 83 38 83 91c0 55 -34 91 -83 91c-51 0 -83 -36 -83 -91zM891 32
c-29 31 -44 71 -44 119s15 88 44 119s68 47 115 47s86 -16 115 -47s44 -71 44 -119s-15 -88 -44 -119s-68 -47 -115 -47s-86 16 -115 47zM923 151c0 -53 32 -91 83 -91c49 0 83 38 83 91c0 55 -34 91 -83 91c-51 0 -83 -36 -83 -91z" />
    <glyph glyph-name="guilsinglleft" unicode="&#x2039;" horiz-adv-x="328" 
d="M231 15l-206 225l206 225l57 -53l-163 -172l163 -172z" />
    <glyph glyph-name="guilsinglright" unicode="&#x203a;" horiz-adv-x="328" 
d="M40 412l57 53l206 -225l-206 -225l-57 53l163 172z" />
    <glyph glyph-name="Euro" unicode="&#x20ac;" horiz-adv-x="552" 
d="M95 226h-80v72h77v54h-77v71h80c12 164 95 242 218 242c100 0 166 -46 198 -138l-85 -36c-19 61 -57 91 -113 91c-72 0 -121 -51 -125 -159h172v-71h-175v-54h175v-72h-172c4 -108 52 -158 125 -158c56 0 94 30 113 90l85 -35c-32 -92 -98 -138 -198 -138
c-123 0 -206 78 -218 241z" />
    <glyph glyph-name="afii61352" unicode="&#x2116;" horiz-adv-x="961" 
d="M704 362c-27 27 -40 59 -40 96s13 69 40 96s59 40 96 40s69 -13 96 -40s40 -59 40 -96s-13 -69 -40 -96s-59 -40 -96 -40s-69 13 -96 40zM869 458c0 37 -32 69 -69 69c-60 3 -95 -78 -49 -118c40 -46 121 -11 118 49zM936 219h-272v62h272v-62zM614 -20h-5l-443 471v-451
h-96v670h5l443 -470v450h96v-670z" />
    <glyph glyph-name="trademark" unicode="&#x2122;" horiz-adv-x="492" 
d="M293 650l53 -153l53 153h78v-231h-61v131l-46 -131h-47l-46 131v-131h-62v178h-68v-178h-62v178h-70v53h278z" />
    <glyph glyph-name="CR.001" unicode="&#xe001;" horiz-adv-x="220" 
 />
    <glyph glyph-name="percent" unicode="%" horiz-adv-x="815" 
d="M69 380c-29 31 -44 71 -44 119s15 88 44 119s68 47 115 47s86 -16 115 -47s44 -71 44 -119s-15 -88 -44 -119s-68 -47 -115 -47s-86 16 -115 47zM101 499c0 -53 32 -91 83 -91c49 0 83 38 83 91c0 55 -34 91 -83 91c-51 0 -83 -36 -83 -91zM514 670l77 -38l-298 -654
l-77 37zM516 32c-29 31 -44 71 -44 119s15 88 44 119s68 47 115 47s86 -16 115 -47s44 -71 44 -119s-15 -88 -44 -119s-68 -47 -115 -47s-86 16 -115 47zM548 151c0 -53 32 -91 83 -91c49 0 83 38 83 91c0 55 -34 91 -83 91c-51 0 -83 -36 -83 -91z" />
    <glyph glyph-name="g.alt" unicode="&#xe00a;" 
d="M424 376v84h84v-414c0 -161 -89 -245 -238 -245c-93 0 -159 33 -198 100l58 48c31 -45 77 -68 140 -68c98 0 147 55 147 165v25c-31 -57 -84 -85 -159 -85c-129 0 -213 95 -213 244c0 75 19 134 58 178c39 45 90 67 155 67c67 0 131 -32 166 -99zM421 230
c-3 101 -58 168 -143 168c-88 0 -140 -72 -140 -168s52 -167 140 -167c91 0 143 67 143 167z" />
    <glyph glyph-name="a.alt" unicode="&#xe003;" 
d="M424 376v84h84v-460h-91v71c-31 -57 -84 -85 -159 -85c-129 0 -213 95 -213 244c0 75 19 134 58 178c39 45 90 67 155 67c67 0 131 -32 166 -99zM421 230c-3 101 -58 168 -143 168c-88 0 -140 -72 -140 -168s52 -167 140 -167c91 0 143 67 143 167z" />
    <glyph glyph-name="hyphen.2" unicode="&#xe00b;" horiz-adv-x="435" 
d="M385 248h-335v78h335v-78z" />
    <glyph glyph-name="asciitilde.2" unicode="&#xe004;" horiz-adv-x="612" 
d="M227 358l160 -53c69 -23 102 -1 100 65l80 -21c-8 -111 -69 -164 -182 -127l-160 53c-69 23 -102 -1 -100 -70l-80 21c8 111 66 163 182 132z" />
    <glyph glyph-name="endash.2" unicode="&#xe008;" horiz-adv-x="515" 
d="M445 248h-375v78h375v-78z" />
    <glyph glyph-name="emdash.2" unicode="&#xe007;" horiz-adv-x="755" 
d="M635 248h-515v78h515v-78z" />
    <glyph glyph-name="uni00AD.2" unicode="&#xe010;" horiz-adv-x="435" 
d="M385 248h-335v78h335v-78z" />
    <glyph glyph-name="plus.2" unicode="&#xe00e;" horiz-adv-x="510" 
d="M211 248h-151v78h151v156h88v-156h151v-78h-151v-156h-88v156z" />
    <glyph glyph-name="colon.2" unicode="&#xe006;" horiz-adv-x="227" 
d="M71 103c-21 23 -21 61 0 84c23 23 61 23 84 0s23 -61 0 -84c-23 -21 -61 -21 -84 0zM71 360c-21 23 -21 61 0 84c23 23 61 23 84 0s23 -61 0 -84c-23 -21 -61 -21 -84 0z" />
    <glyph glyph-name="periodcentered.2" unicode="&#xe00d;" horiz-adv-x="257" 
d="M86 244c-21 23 -21 61 0 84c23 23 61 23 84 0s23 -61 0 -84c-23 -21 -61 -21 -84 0z" />
    <glyph glyph-name="bullet.2" unicode="&#xe005;" horiz-adv-x="330" 
d="M165 377c48 0 90 -41 90 -90c0 -51 -42 -90 -90 -90c-51 0 -90 42 -90 90s39 90 90 90z" />
    <glyph glyph-name="plusminus.2" unicode="&#xe00f;" horiz-adv-x="530" 
d="M221 371h-161v83h161v146h88v-146h161v-83h-161v-146h-88v146zM470 106h-410v83h410v-83z" />
    <glyph glyph-name="equal.2" unicode="&#xe009;" horiz-adv-x="495" 
d="M435 178h-375v78h375v-78zM435 323h-375v78h375v-78z" />
    </font>
</defs>
</svg>
