<?xml version="1.0" standalone="no"?>
<!DOCTYPE svg PUBLIC "-//W3C//DTD SVG 1.1//EN" "http://www.w3.org/Graphics/SVG/1.1/DTD/svg11.dtd" >
<svg xmlns="http://www.w3.org/2000/svg" xmlns:xlink="http://www.w3.org/1999/xlink" version="1.1">
<metadata>
Created by FontForge 20161116 at Sun Jan  5 07:25:01 2014
 By Jimmy Warting
Copyright (c) 2008 by abstrkt. All rights reserved.
</metadata>
<defs>
<font id="LitteraPlainLight" horiz-adv-x="216" >
  <font-face 
    font-family="Littera Plain Light"
    font-weight="200"
    font-stretch="normal"
    units-per-em="1000"
    panose-1="2 0 5 6 4 0 0 2 0 4"
    ascent="749"
    descent="-251"
    x-height="460"
    cap-height="650"
    bbox="-17 -221 1160 909"
    underline-thickness="50"
    underline-position="-100"
    unicode-range="U+0020-E010"
  />
<missing-glyph horiz-adv-x="0" 
 />
    <glyph glyph-name=".notdef" horiz-adv-x="0" 
 />
    <glyph glyph-name="NULL" unicode="&#xe002;" horiz-adv-x="0" 
 />
    <glyph glyph-name="CR" unicode="&#xe000;" horiz-adv-x="333" 
 />
    <glyph glyph-name="space" unicode=" " horiz-adv-x="220" 
 />
    <glyph glyph-name="exclam" unicode="!" horiz-adv-x="182" 
d="M63 650h56v-460h-56v460zM62 7c-16 16 -16 42 0 58s42 16 58 0s16 -42 0 -58s-42 -16 -58 0z" />
    <glyph glyph-name="quotedbl" unicode="&#x22;" horiz-adv-x="260" 
d="M100 509h-40l-10 190h60zM200 509h-40l-10 190h60z" />
    <glyph glyph-name="numbersign" unicode="#" horiz-adv-x="685" 
d="M246 427h-166v53h187l65 170h59l-66 -170h162l65 170h59l-66 -170h140v-53h-160l-75 -196h155v-53h-176l-68 -178h-59l68 178h-161l-68 -178h-59l68 178h-150v53h171zM466 427h-161l-75 -196h161z" />
    <glyph glyph-name="dollar" unicode="$" horiz-adv-x="537" 
d="M477 182c0 -109 -74 -174 -179 -182v-131h-56v130c-84 6 -146 44 -185 114l42 36c53 -79 105 -99 169 -99c92 0 153 40 153 132c0 33 -11 58 -33 77s-60 37 -113 54c-67 21 -111 38 -130 49c-47 28 -70 72 -70 131c0 89 60 147 167 156v131h56v-131
c65 -1 108 -21 159 -72l-38 -45c-45 47 -86 66 -149 66c-89 0 -139 -45 -139 -105c0 -36 10 -62 30 -78c21 -16 58 -32 113 -48c52 -15 82 -26 119 -47c53 -27 84 -69 84 -138z" />
    <glyph glyph-name="ampersand" unicode="&#x26;" horiz-adv-x="571" 
d="M531 20l-41 -35l-72 86c-51 -57 -110 -86 -179 -86c-53 0 -98 15 -135 44c-36 29 -54 70 -54 123c0 79 49 132 136 195c-35 43 -59 75 -72 97c-13 23 -19 46 -19 71c0 91 61 150 160 150c101 0 160 -51 160 -140c0 -23 -8 -47 -25 -72c-17 -24 -34 -43 -51 -58
c-17 -14 -43 -33 -76 -58l152 -180c21 38 35 79 43 124h56c-9 -59 -30 -115 -63 -166zM384 111l-164 195c-28 -21 -48 -36 -60 -46c-24 -19 -55 -64 -55 -113c0 -33 13 -60 39 -80c27 -19 58 -29 93 -29c59 0 108 24 147 73zM360 525c0 63 -46 87 -105 87
c-57 0 -105 -32 -105 -97c0 -39 20 -70 79 -138l66 48c31 24 65 65 65 100z" />
    <glyph glyph-name="quotesingle" unicode="'" horiz-adv-x="160" 
d="M100 509h-40l-10 190h60z" />
    <glyph glyph-name="parenleft" unicode="(" horiz-adv-x="239" 
d="M60 261c0 166 40 317 121 452l48 -30c-75 -129 -113 -269 -113 -422c0 -133 38 -263 113 -392l-48 -30c-81 135 -121 276 -121 422z" />
    <glyph glyph-name="parenright" unicode=")" horiz-adv-x="239" 
d="M179 261c0 -146 -40 -287 -121 -422l-48 30c75 129 113 259 113 392c0 153 -38 293 -113 422l48 30c81 -135 121 -286 121 -452z" />
    <glyph glyph-name="asterisk" unicode="*" horiz-adv-x="340" 
d="M170 571l52 109l46 -27l-69 -100l121 10v-53l-121 10l69 -100l-46 -27l-52 108l-52 -108l-46 27l68 99l-120 -9v53l120 -10l-68 100l46 27z" />
    <glyph glyph-name="plus" unicode="+" horiz-adv-x="515" 
d="M231 218h-161v53h161v171h53v-171h161v-53h-161v-171h-53v171z" />
    <glyph glyph-name="comma" unicode="," horiz-adv-x="203" 
d="M74 69h69l-65 -189h-38c22 126 33 189 34 189z" />
    <glyph glyph-name="hyphen" unicode="-" horiz-adv-x="435" 
d="M385 218h-335v53h335v-53z" />
    <glyph glyph-name="period" unicode="." horiz-adv-x="182" 
d="M62 7c-16 16 -16 42 0 58s42 16 58 0s16 -42 0 -58s-42 -16 -58 0z" />
    <glyph glyph-name="slash" unicode="/" horiz-adv-x="424" 
d="M373 694l51 -24l-373 -804l-51 24z" />
    <glyph glyph-name="zero" unicode="0" horiz-adv-x="552" 
d="M115 70c-37 57 -55 142 -55 255s18 198 55 255s91 85 161 85s123 -28 160 -85s56 -142 56 -255s-19 -198 -56 -255s-90 -85 -160 -85s-124 28 -161 85zM276 38c105 0 158 86 158 287c0 203 -53 287 -158 287c-104 0 -158 -86 -158 -287s54 -287 158 -287z" />
    <glyph glyph-name="one" unicode="1" horiz-adv-x="252" 
d="M116 550l-86 -83v67l142 136v-670h-56v550z" />
    <glyph glyph-name="two" unicode="2" horiz-adv-x="464" 
d="M151 53h263v-53h-375l75 87c35 39 64 73 87 101c23 29 48 61 74 98c52 75 79 147 79 212c0 81 -52 114 -109 114c-69 0 -110 -39 -123 -116l-53 12c19 105 78 157 176 157c35 0 68 -8 104 -31c37 -23 62 -71 62 -136c0 -111 -87 -259 -260 -445z" />
    <glyph glyph-name="three" unicode="3" horiz-adv-x="506" 
d="M58 133l56 14c15 -69 69 -108 138 -108c77 0 129 52 129 149c0 83 -40 130 -111 130h-38v54h33c39 0 66 12 82 37c17 25 25 53 25 83c0 85 -51 121 -120 121c-56 0 -113 -39 -126 -124l-54 13c5 39 18 72 39 97c41 51 88 66 141 66c111 0 183 -62 183 -169
c0 -33 -9 -65 -26 -96c-17 -30 -40 -48 -70 -53v-6c72 -19 107 -77 107 -152c0 -58 -15 -107 -45 -146c-29 -39 -79 -58 -150 -58c-100 0 -178 57 -193 148z" />
    <glyph glyph-name="four" unicode="4" horiz-adv-x="469" 
d="M30 138v46l244 466h89v-459h77v-53h-77v-138h-56v138h-277zM307 600l-216 -409h216v409z" />
    <glyph glyph-name="five" unicode="5" horiz-adv-x="506" 
d="M106 650h310v-53h-258l-24 -220c19 32 68 57 120 57c67 0 116 -21 146 -64c31 -42 46 -96 46 -161c0 -55 -11 -102 -39 -149c-28 -45 -83 -75 -156 -75c-100 0 -177 55 -193 148l56 14c13 -69 70 -108 138 -108c75 0 129 68 129 169c0 113 -43 170 -129 170
c-53 0 -94 -20 -123 -59h-57z" />
    <glyph glyph-name="six" unicode="6" horiz-adv-x="504" 
d="M443 212c-1 -152 -73 -227 -184 -227c-75 0 -127 25 -156 76s-43 123 -43 216c0 139 17 238 52 298s85 90 152 90c94 0 150 -54 168 -163l-54 -13c-13 82 -51 123 -114 123c-95 0 -147 -98 -150 -289c28 60 93 91 145 91c53 0 97 -18 132 -55s53 -86 52 -147zM259 38
c76 0 131 56 131 164c0 104 -52 159 -131 159c-81 0 -140 -55 -140 -160c0 -109 57 -163 140 -163z" />
    <glyph glyph-name="seven" unicode="7" horiz-adv-x="454" 
d="M348 597h-308v53h384l-235 -650h-60z" />
    <glyph glyph-name="eight" unicode="8" horiz-adv-x="497" 
d="M417 497c0 -67 -34 -123 -90 -146v-4c60 -20 110 -82 110 -166c0 -124 -75 -196 -188 -196s-189 72 -189 195c0 85 49 147 109 167v4c-56 23 -89 80 -89 145c0 51 16 91 49 122s73 47 120 47s86 -15 119 -46s49 -71 49 -122zM249 38c73 0 129 52 129 143
c0 87 -52 138 -129 138s-130 -52 -130 -139c0 -92 50 -142 130 -142zM360 497c0 30 -10 57 -31 80c-20 23 -47 35 -80 35s-60 -12 -81 -35s-31 -50 -31 -80c0 -68 41 -125 112 -125s111 57 111 125z" />
    <glyph glyph-name="nine" unicode="9" horiz-adv-x="504" 
d="M61 442c1 152 79 223 184 223c133 0 199 -97 199 -292c0 -259 -66 -388 -197 -388c-103 0 -166 49 -189 148l55 14c19 -73 63 -109 131 -109c92 0 141 96 146 289c-28 -60 -89 -91 -140 -91c-53 0 -98 19 -135 57s-55 88 -54 149zM245 612c-72 0 -131 -57 -131 -164
c0 -104 52 -159 131 -159c81 0 140 55 140 160c0 108 -61 163 -140 163z" />
    <glyph glyph-name="colon" unicode=":" horiz-adv-x="222" 
d="M82 67c-16 16 -16 42 0 58s42 16 58 0s16 -42 0 -58s-42 -16 -58 0zM82 335c-16 16 -16 42 0 58s42 16 58 0s16 -42 0 -58s-42 -16 -58 0z" />
    <glyph glyph-name="semicolon" unicode=";" horiz-adv-x="193" 
d="M72 335c-16 16 -16 42 0 58s42 16 58 0s16 -42 0 -58s-42 -16 -58 0zM74 69h69l-65 -189h-38c22 126 33 189 34 189z" />
    <glyph glyph-name="less" unicode="&#x3c;" horiz-adv-x="427" 
d="M377 25l-39 -40l-308 259l307 255l40 -39l-258 -216z" />
    <glyph glyph-name="equal" unicode="=" horiz-adv-x="515" 
d="M445 158h-375v53h375v-53zM445 288h-375v53h375v-53z" />
    <glyph glyph-name="greater" unicode="&#x3e;" horiz-adv-x="427" 
d="M90 499l307 -255l-308 -259l-39 40l258 219l-258 216z" />
    <glyph glyph-name="question" unicode="?" horiz-adv-x="447" 
d="M249 244v-54h-60v66c0 63 26 94 81 133c31 21 50 38 58 49c11 15 16 33 16 54c0 85 -53 121 -122 121c-56 0 -114 -40 -126 -124l-54 13c8 57 29 98 64 124s73 39 116 39c111 0 185 -62 185 -169c0 -60 -27 -98 -86 -139c-28 -20 -46 -36 -54 -47
c-12 -18 -18 -40 -18 -66zM190 7c-16 16 -16 42 0 58s42 16 58 0s16 -42 0 -58s-42 -16 -58 0z" />
    <glyph glyph-name="at" unicode="@" horiz-adv-x="772" 
d="M386 -94c55 0 104 13 145 38l30 -43c-52 -31 -110 -47 -175 -47c-99 0 -180 34 -243 101c-62 67 -93 153 -93 259c0 105 31 192 94 259s143 101 242 101s179 -33 242 -100c63 -66 94 -153 94 -260c0 -40 -4 -76 -11 -107c-13 -61 -54 -112 -115 -112c-42 0 -70 17 -84 51
c-35 -34 -88 -51 -159 -51c-100 0 -153 55 -153 131c3 63 27 101 78 122c36 15 59 20 106 24c24 2 43 3 56 3c14 1 33 1 57 1c5 79 -30 119 -104 119c-49 0 -92 -19 -131 -57l-33 39c45 45 100 68 163 68c113 0 161 -51 161 -168v-175c0 -36 18 -58 47 -58
c41 0 69 57 69 170c0 97 -26 172 -79 226c-53 55 -121 82 -204 82s-151 -27 -204 -82s-79 -130 -79 -226s26 -171 79 -226s121 -82 204 -82zM497 96v132c-89 0 -152 -10 -184 -22c-15 -5 -27 -13 -36 -24c-17 -21 -17 -32 -17 -57c0 -45 32 -81 97 -81c60 0 99 11 140 52z
" />
    <glyph glyph-name="A" unicode="A" horiz-adv-x="647" 
d="M617 0h-59l-70 163h-330l-69 -163h-59l289 670h6zM469 208l-147 344l-145 -344h292z" />
    <glyph glyph-name="B" unicode="B" horiz-adv-x="598" 
d="M332 0h-252v650h231c137 0 206 -57 206 -160c0 -65 -36 -127 -96 -146v-5c38 -6 69 -25 92 -56s35 -66 35 -103c0 -109 -75 -180 -216 -180zM335 312h-199v-267h199c103 0 157 55 157 135s-54 132 -157 132zM136 605v-248h179c99 0 147 50 147 133c0 77 -49 115 -148 115
h-178z" />
    <glyph glyph-name="C" unicode="C" horiz-adv-x="641" 
d="M108 325c0 -87 22 -157 66 -210c44 -52 101 -78 172 -78c88 0 153 38 196 113l49 -31c-53 -89 -134 -134 -245 -134c-89 0 -161 30 -215 90s-81 142 -81 247s27 188 81 250s126 93 215 93c110 0 192 -44 245 -133l-49 -31c-43 75 -109 112 -196 112
c-71 0 -128 -26 -172 -78s-66 -122 -66 -210z" />
    <glyph glyph-name="D" unicode="D" horiz-adv-x="626" 
d="M576 323c0 -99 -25 -178 -74 -236s-121 -87 -218 -87h-204v650h204c192 0 292 -127 292 -327zM136 600v-550h148c159 0 237 107 237 275s-78 275 -237 275h-148z" />
    <glyph glyph-name="E" unicode="E" horiz-adv-x="534" 
d="M484 0h-404v650h394v-50h-338v-240h283v-50h-283v-260h348v-50z" />
    <glyph glyph-name="F" unicode="F" horiz-adv-x="534" 
d="M136 0h-56v650h404v-50h-348v-240h283v-50h-283v-310z" />
    <glyph glyph-name="G" unicode="G" horiz-adv-x="662" 
d="M559 260h-233v45h286v-30c0 -180 -93 -290 -266 -290c-89 0 -161 30 -215 90s-81 142 -81 247s27 188 81 250s126 93 215 93c110 0 192 -44 245 -133l-49 -31c-43 75 -109 112 -196 112c-71 0 -128 -26 -172 -78s-66 -122 -66 -210c0 -87 22 -157 66 -210
c44 -52 101 -78 172 -78c140 0 213 82 213 223z" />
    <glyph glyph-name="H" unicode="H" horiz-adv-x="644" 
d="M509 310h-373v-310h-56v650h56v-295h373v295h55v-650h-55v310z" />
    <glyph glyph-name="I" unicode="I" 
d="M80 650h56v-650h-56v650z" />
    <glyph glyph-name="J" unicode="J" horiz-adv-x="371" 
d="M235 650h56v-491c0 -116 -47 -174 -142 -174c-43 0 -88 20 -109 43l26 43c29 -23 56 -35 81 -35c53 0 88 41 88 132v482z" />
    <glyph glyph-name="K" unicode="K" horiz-adv-x="578" 
d="M80 650h56v-313l298 313h74l-305 -312v-7l336 -331h-78l-325 328v-328h-56v650z" />
    <glyph glyph-name="L" unicode="L" horiz-adv-x="529" 
d="M479 53v-53h-399v650h56v-597h343z" />
    <glyph glyph-name="M" unicode="M" horiz-adv-x="761" 
d="M381 160h-1l-244 354v-514h-56v670h6l295 -422l295 422h5v-670h-55v514z" />
    <glyph glyph-name="N" unicode="N" horiz-adv-x="669" 
d="M589 -20h-5l-448 544v-524h-56v670h5l448 -544v524h56v-670z" />
    <glyph glyph-name="O" unicode="O" horiz-adv-x="692" 
d="M131 76c-54 61 -81 144 -81 249s27 187 81 248s126 92 215 92s161 -31 215 -92s81 -143 81 -248s-27 -188 -81 -249s-126 -91 -215 -91s-161 30 -215 91zM108 325c0 -87 22 -157 66 -210c44 -52 101 -78 172 -78s129 26 172 78c44 52 66 122 66 210s-22 158 -66 210
c-43 52 -101 78 -172 78s-128 -26 -172 -78s-66 -122 -66 -210z" />
    <glyph glyph-name="P" unicode="P" horiz-adv-x="576" 
d="M281 231h-145v-231h-56v650h201c163 0 245 -69 245 -206c0 -144 -93 -213 -245 -213zM136 602v-324h135c127 0 199 43 199 166c0 121 -70 158 -199 158h-135z" />
    <glyph glyph-name="Q" unicode="Q" horiz-adv-x="692" 
d="M50 325c0 105 27 187 81 248s126 92 215 92s161 -31 215 -92s81 -143 81 -248c0 -97 -23 -175 -70 -235s-109 -94 -188 -103l170 -120l-73 -20l-163 139c-82 7 -147 40 -196 100c-48 60 -72 140 -72 239zM108 325c0 -87 22 -157 66 -210c44 -52 101 -78 172 -78
s129 26 172 78c44 52 66 122 66 210s-22 158 -66 210c-43 52 -101 78 -172 78s-128 -26 -172 -78s-66 -122 -66 -210z" />
    <glyph glyph-name="R" unicode="R" horiz-adv-x="606" 
d="M281 231h-145v-231h-56v650h201c163 0 245 -69 245 -206c0 -98 -41 -163 -124 -194l154 -250h-64l-144 236c-19 -3 -42 -5 -67 -5zM136 602v-324h135c127 0 199 43 199 166c0 121 -70 158 -199 158h-135z" />
    <glyph glyph-name="S" unicode="S" horiz-adv-x="583" 
d="M533 171c0 -60 -23 -106 -69 -138s-105 -48 -176 -48c-48 0 -94 9 -139 26c-45 18 -79 48 -103 90l39 35c45 -66 113 -99 203 -99c112 0 189 42 189 134c0 41 -14 71 -41 90c-27 20 -72 37 -135 52c-21 5 -35 9 -42 10s-19 5 -38 10s-31 9 -38 12s-17 8 -32 14
c-28 13 -33 22 -52 39c-22 24 -33 58 -33 102c0 97 86 165 227 165c91 0 164 -25 218 -75l-39 -43c-60 52 -108 66 -179 66c-108 0 -171 -52 -171 -113c0 -35 13 -60 29 -77c9 -8 22 -16 39 -23s33 -13 48 -17l62 -16c31 -7 55 -14 73 -19s38 -13 61 -24s41 -22 53 -35
c25 -24 46 -66 46 -118z" />
    <glyph glyph-name="T" unicode="T" horiz-adv-x="602" 
d="M50 650h502v-50h-223v-600h-56v600h-223v50z" />
    <glyph glyph-name="U" unicode="U" horiz-adv-x="645" 
d="M70 260v390h56v-400c0 -129 73 -212 196 -212c124 0 197 81 197 212v400h56v-390c0 -85 -22 -152 -67 -201s-107 -74 -186 -74c-157 0 -252 106 -252 275z" />
    <glyph glyph-name="V" unicode="V" horiz-adv-x="647" 
d="M89 650l236 -552l233 552h59l-289 -670h-6l-292 670h59z" />
    <glyph glyph-name="W" unicode="W" horiz-adv-x="944" 
d="M475 670l220 -540l149 520h60l-197 -670h-6l-229 553l-231 -553h-6l-195 670h60l148 -520l221 540h6z" />
    <glyph glyph-name="X" unicode="X" horiz-adv-x="628" 
d="M102 0h-62l243 334l-223 316h67l187 -275l192 275h62l-224 -310l244 -340h-67l-208 294z" />
    <glyph glyph-name="Y" unicode="Y" horiz-adv-x="602" 
d="M500 650h62l-233 -413v-237h-56v237l-233 413h62l199 -360z" />
    <glyph glyph-name="Z" unicode="Z" horiz-adv-x="578" 
d="M538 650v-5l-406 -594h397v-51h-489v5l407 595h-377v50h468z" />
    <glyph glyph-name="bracketleft" unicode="[" horiz-adv-x="285" 
d="M80 703h175v-53h-119v-747h119v-53h-175v853z" />
    <glyph glyph-name="backslash" unicode="\" horiz-adv-x="424" 
d="M424 -110l-51 -24l-373 804l51 24z" />
    <glyph glyph-name="bracketright" unicode="]" horiz-adv-x="285" 
d="M149 650h-119v53h175v-853h-175v53h119v747z" />
    <glyph glyph-name="asciicircum" unicode="^" horiz-adv-x="454" 
d="M70 403l-40 39l199 228l195 -226l-39 -41l-156 188z" />
    <glyph glyph-name="underscore" unicode="_" horiz-adv-x="575" 
d="M505 0h-435v53h435v-53z" />
    <glyph glyph-name="grave" unicode="`" horiz-adv-x="183" 
d="M125 461l-115 189h69l94 -189h-48z" />
    <glyph glyph-name="a" unicode="a" horiz-adv-x="493" 
d="M102 368l-29 42c64 53 116 65 179 65c107 0 161 -63 161 -188v-287h-52v56c-41 -47 -96 -71 -166 -71c-95 0 -155 55 -155 136c-4 78 53 122 111 142c19 7 42 12 69 15s50 5 69 6s41 2 68 2c4 81 -25 139 -104 139c-53 0 -104 -19 -151 -57zM357 110v128
c-111 0 -183 -11 -216 -35c-33 -23 -41 -45 -41 -82c0 -52 39 -87 107 -87c56 0 106 25 150 76z" />
    <glyph glyph-name="b" unicode="b" horiz-adv-x="578" 
d="M131 94v-94h-51v650h56v-266c29 55 95 91 174 91c65 0 118 -23 158 -68s60 -104 60 -177s-20 -132 -60 -177s-93 -68 -158 -68c-73 0 -144 37 -179 109zM132 230c1 -56 18 -102 49 -139c31 -36 72 -54 122 -54c51 0 92 18 123 55s46 83 46 138s-15 100 -46 137
s-72 55 -123 55c-109 0 -171 -80 -171 -192z" />
    <glyph glyph-name="c" unicode="c" horiz-adv-x="508" 
d="M279 38c63 0 111 22 142 67l37 -34c-43 -57 -102 -86 -179 -86c-67 0 -122 22 -165 67s-64 104 -64 177s21 132 64 177c43 46 98 69 165 69c73 0 131 -28 174 -85l-37 -35c-32 45 -78 68 -137 68c-52 0 -94 -19 -126 -56c-31 -37 -47 -82 -47 -137s16 -100 47 -137
c32 -37 74 -55 126 -55z" />
    <glyph glyph-name="d" unicode="d" horiz-adv-x="578" 
d="M498 0h-51v94c-35 -72 -106 -109 -179 -109c-65 0 -118 23 -158 68s-60 104 -60 177s20 132 60 177s93 68 158 68c79 0 145 -36 174 -91v266h56v-650zM446 230c0 112 -62 192 -171 192c-51 0 -92 -18 -123 -55s-46 -82 -46 -137s15 -101 46 -138s72 -55 123 -55
c50 0 91 18 122 54c31 37 48 83 49 139z" />
    <glyph glyph-name="e" unicode="e" horiz-adv-x="530" 
d="M50 229c0 72 20 131 61 177s93 69 154 69c141 0 215 -94 215 -245v-12h-374c4 -107 64 -181 172 -181c65 0 116 23 154 70l37 -33c-45 -59 -109 -89 -194 -89c-143 0 -225 96 -225 244zM265 423c-81 0 -143 -62 -156 -157h312c-8 99 -60 157 -156 157z" />
    <glyph glyph-name="f" unicode="f" horiz-adv-x="330" 
d="M117 0v412h-77v48h77v70c0 65 37 118 117 118c33 0 58 -6 76 -18l-13 -41c-19 7 -40 11 -63 11c-41 0 -61 -29 -61 -86v-54h101v-48h-101v-412h-56z" />
    <glyph glyph-name="g" unicode="g" horiz-adv-x="560" 
d="M74 310c0 109 75 165 202 165c58 0 104 -13 139 -38c22 23 47 34 76 34c25 0 44 -4 59 -11c-5 -13 -18 -35 -23 -47c-32 18 -59 17 -82 -3c22 -28 33 -61 33 -100c0 -109 -75 -165 -202 -165c-39 0 -72 5 -100 16c-35 -1 -53 -27 -53 -52c0 -17 8 -29 24 -38
c17 -9 51 -13 102 -13h99c66 0 156 -26 156 -130c0 -87 -77 -149 -209 -149h-20c-141 0 -203 64 -203 149c0 41 23 78 51 94c-35 13 -53 39 -53 78c0 41 27 80 62 85c-39 32 -58 74 -58 125zM129 310c0 -78 49 -117 146 -117s146 39 146 117c0 79 -49 118 -146 118
s-146 -39 -146 -118zM334 10h-145c-37 -8 -62 -46 -62 -83c0 -60 50 -97 146 -97h18c43 0 80 8 110 24c31 16 46 41 46 75c0 54 -38 81 -113 81z" />
    <glyph glyph-name="h" unicode="h" horiz-adv-x="553" 
d="M136 240v-240h-56v650h56v-284c32 76 97 109 164 109c85 0 173 -39 173 -200v-275h-56v260c0 105 -28 163 -124 163c-45 0 -82 -18 -112 -53s-45 -79 -45 -130z" />
    <glyph glyph-name="i" unicode="i" 
d="M136 0h-56v460h56v-460zM79 588c-16 16 -16 42 0 58s42 16 58 0s16 -42 0 -58s-42 -16 -58 0z" />
    <glyph glyph-name="j" unicode="j" 
d="M80 460h56v-510c0 -92 -36 -138 -107 -138c-19 0 -35 4 -46 13l13 40c12 -5 23 -7 33 -7c34 0 51 28 51 83v519zM79 588c-16 16 -16 42 0 58s42 16 58 0s16 -42 0 -58s-42 -16 -58 0z" />
    <glyph glyph-name="k" unicode="k" horiz-adv-x="470" 
d="M80 650h56v-407l210 217h76l-219 -215v-6l238 -239h-77l-228 235v-235h-56v650z" />
    <glyph glyph-name="l" unicode="l" 
d="M80 650h56v-650h-56v650z" />
    <glyph glyph-name="m" unicode="m" horiz-adv-x="790" 
d="M423 240v-240h-56v260c0 105 -22 163 -99 163c-39 0 -71 -18 -96 -53c-24 -35 -36 -78 -36 -130v-240h-56v460h51v-94c33 73 81 109 144 109c72 0 116 -37 133 -111h5c27 76 85 111 149 111c42 0 77 -15 105 -45c29 -30 43 -82 43 -155v-275h-56v260
c0 105 -22 163 -99 163c-39 0 -71 -18 -96 -53c-24 -35 -36 -78 -36 -130z" />
    <glyph glyph-name="n" unicode="n" horiz-adv-x="553" 
d="M136 240v-240h-56v460h51v-94c35 76 102 109 169 109c85 0 173 -39 173 -200v-275h-56v260c0 105 -28 163 -124 163c-45 0 -82 -18 -112 -53s-45 -79 -45 -130z" />
    <glyph glyph-name="o" unicode="o" horiz-adv-x="554" 
d="M277 -15c-67 0 -122 23 -164 68s-63 104 -63 177s21 132 63 177s97 68 164 68s122 -23 164 -68s63 -104 63 -177s-21 -132 -63 -177c-41 -45 -96 -68 -164 -68zM106 230c0 -55 15 -100 46 -137s73 -55 125 -55c53 0 94 18 125 55s46 82 46 137s-15 101 -46 138
s-72 55 -125 55c-52 0 -94 -18 -125 -55s-46 -83 -46 -138z" />
    <glyph glyph-name="p" unicode="p" horiz-adv-x="578" 
d="M80 460h51v-94c35 72 106 109 179 109c65 0 118 -23 158 -68s60 -104 60 -177s-20 -132 -60 -177s-93 -68 -158 -68c-79 0 -145 36 -174 91v-260h-56v644zM132 230c0 -112 62 -192 171 -192c51 0 92 18 123 55s46 82 46 137s-15 101 -46 138s-72 55 -123 55
c-50 0 -91 -18 -122 -55c-31 -36 -48 -82 -49 -138z" />
    <glyph glyph-name="q" unicode="q" horiz-adv-x="578" 
d="M447 366v94h51v-644h-56v260c-29 -55 -95 -91 -174 -91c-65 0 -118 23 -158 68s-60 104 -60 177s20 132 60 177s93 68 158 68c73 0 144 -37 179 -109zM446 230c-1 56 -18 102 -49 138c-31 37 -72 55 -122 55c-51 0 -92 -18 -123 -55s-46 -83 -46 -138s15 -100 46 -137
s72 -55 123 -55c109 0 171 80 171 192z" />
    <glyph glyph-name="r" unicode="r" horiz-adv-x="397" 
d="M136 230v-230h-56v460h51v-107c31 81 87 122 169 122c24 0 43 -4 57 -12l-13 -46c-13 5 -28 7 -44 7c-49 0 -88 -19 -119 -58c-30 -38 -45 -83 -45 -136z" />
    <glyph glyph-name="s" unicode="s" horiz-adv-x="468" 
d="M400 421l-30 -46c-43 32 -90 48 -140 48c-67 0 -108 -28 -108 -75c0 -31 22 -54 65 -67l71 -15c45 -9 75 -18 108 -38c35 -20 52 -54 52 -99c0 -83 -65 -144 -178 -144c-86 0 -150 29 -191 88l36 43c43 -52 96 -78 160 -78s116 30 116 91c0 25 -14 44 -26 55
c-6 6 -17 11 -32 16s-26 8 -33 9l-40 9c-40 8 -59 12 -92 25c-47 20 -70 48 -73 105c0 81 74 127 170 127c69 0 124 -18 165 -54z" />
    <glyph glyph-name="t" unicode="t" horiz-adv-x="337" 
d="M60 412v48h59v120h56v-120h89v-48h-89v-293c0 -59 2 -81 46 -87c9 0 25 2 48 7l8 -41c-4 -3 -14 -6 -29 -9s-28 -4 -37 -4c-41 0 -67 13 -79 38c-11 27 -13 45 -13 80v309h-59z" />
    <glyph glyph-name="u" unicode="u" horiz-adv-x="553" 
d="M417 220v240h56v-460h-51v94c-33 -73 -87 -109 -164 -109c-84 0 -178 39 -178 200v275h56v-260c0 -103 32 -163 129 -163c45 0 81 18 109 53c29 35 43 79 43 130z" />
    <glyph glyph-name="v" unicode="v" horiz-adv-x="494" 
d="M81 460l167 -360l165 360h61l-223 -470h-6l-225 470h61z" />
    <glyph glyph-name="w" unicode="w" horiz-adv-x="728" 
d="M367 470l162 -354l114 344h55l-157 -470h-6l-171 369l-171 -369h-6l-157 470h55l114 -344l162 354h6z" />
    <glyph glyph-name="x" unicode="x" horiz-adv-x="491" 
d="M110 0h-70l174 240l-159 220h70l120 -180l121 180h70l-160 -220l175 -240h-70l-136 199z" />
    <glyph glyph-name="y" unicode="y" horiz-adv-x="492" 
d="M404 460h58l-254 -644h-62l75 184l-191 460h63l160 -397z" />
    <glyph glyph-name="z" unicode="z" horiz-adv-x="480" 
d="M30 5l308 407h-278v48h370v-5l-306 -407h296v-48h-390v5z" />
    <glyph glyph-name="braceleft" unicode="{" horiz-adv-x="268" 
d="M30 252v46c28 0 63 36 63 76v188c0 116 44 162 145 142v-53c-65 19 -89 -7 -89 -80v-198c0 -41 -20 -73 -60 -98c40 -25 60 -57 60 -98v-195c0 -73 24 -99 89 -80v-53c-101 -20 -145 26 -145 142v185c0 40 -35 76 -63 76z" />
    <glyph glyph-name="bar" unicode="|" 
d="M80 703h56v-853h-56v853z" />
    <glyph glyph-name="braceright" unicode="}" horiz-adv-x="268" 
d="M238 298v-46c-28 0 -63 -36 -63 -76v-185c0 -116 -44 -162 -145 -142v53c65 -19 89 7 89 80v195c0 41 20 73 60 98c-40 25 -60 57 -60 98v198c0 73 -24 99 -89 80v53c101 20 145 -26 145 -142v-188c0 -40 35 -76 63 -76z" />
    <glyph glyph-name="asciitilde" unicode="~" horiz-adv-x="572" 
d="M225 296l146 -51c69 -24 102 -2 100 65l51 -13c-7 -103 -65 -136 -175 -98l-146 51c-67 23 -101 -1 -100 -70l-51 13c7 104 62 134 175 103z" />
    <glyph glyph-name="sterling" unicode="&#xa3;" horiz-adv-x="593" 
d="M133 358h-113v53h99c-2 12 -3 25 -3 39c0 64 17 116 52 155c35 40 84 60 145 60c80 0 143 -25 188 -75l-39 -43c-45 47 -86 66 -149 66c-89 0 -141 -71 -141 -163c0 -14 1 -27 3 -39h220v-53h-203c7 -14 19 -42 24 -57h179v-53h-168c3 -40 -4 -84 -21 -131
c30 11 60 7 90 -10l86 -51c60 -35 103 -6 100 65l51 -13c-7 -108 -76 -154 -175 -98l-86 51c-60 35 -103 2 -100 -70l-51 13c2 26 7 49 15 69c28 73 40 132 35 175h-151v53h138z" />
    <glyph glyph-name="currency" unicode="&#xa4;" horiz-adv-x="479" 
d="M119 50l-49 28l56 98c-44 34 -66 86 -66 155s22 121 66 155l-56 97l49 28l57 -100c22 7 43 10 63 10c22 0 43 -3 62 -9l58 99l49 -28l-56 -97c45 -35 67 -86 67 -155c0 -70 -23 -122 -68 -156l57 -97l-49 -28l-58 100c-39 -12 -85 -12 -124 0zM151 439
c-23 -23 -35 -59 -35 -108s12 -86 35 -109c24 -23 53 -34 88 -34s64 11 87 34c24 23 36 60 36 109s-12 85 -36 108c-23 23 -52 35 -87 35s-64 -12 -88 -35z" />
    <glyph glyph-name="brokenbar" unicode="&#xa6;" 
d="M136 231v-381h-56v381h56zM80 703h56v-382h-56v382z" />
    <glyph glyph-name="section" unicode="&#xa7;" horiz-adv-x="437" 
d="M70 86l46 26c21 -50 58 -75 111 -75c75 -1 113 73 60 110c-61 53 -213 79 -213 196c0 41 18 77 55 109c-39 25 -59 54 -59 85c0 84 60 128 140 128s138 -46 157 -102l-46 -26c-21 50 -58 75 -111 75c-76 0 -113 -73 -61 -111c63 -50 214 -79 214 -195
c0 -40 -18 -77 -55 -110c39 -25 59 -53 59 -84c0 -84 -60 -128 -140 -128s-138 46 -157 102zM308 306c0 16 -6 31 -19 45c-24 29 -48 41 -96 66l-14 7c-23 -19 -37 -36 -43 -49c-5 -10 -7 -21 -7 -32c0 -25 12 -46 37 -65s44 -30 79 -47l12 -6l7 6c9 8 16 14 25 24
c11 14 19 28 19 51z" />
    <glyph glyph-name="copyright" unicode="&#xa9;" horiz-adv-x="589" 
d="M121 57c-47 48 -71 106 -71 173s24 125 71 173c48 48 106 72 173 72s125 -24 173 -72s72 -106 72 -173s-24 -125 -72 -173s-106 -72 -173 -72s-125 24 -173 72zM156 367c-37 -37 -55 -83 -55 -137s18 -100 55 -137s83 -56 138 -56s101 19 138 56s55 83 55 137
s-18 100 -55 137s-83 56 -138 56s-101 -19 -138 -56zM295 132c41 0 73 27 86 56l39 -24c-24 -45 -72 -75 -125 -75c-39 0 -73 14 -100 41c-27 28 -41 61 -41 100s14 72 41 99c27 28 61 42 100 42c53 0 101 -31 125 -76l-39 -24c-13 29 -43 57 -86 57c-56 0 -96 -42 -96 -98
s40 -98 96 -98z" />
    <glyph glyph-name="guillemotleft" unicode="&#xab;" horiz-adv-x="420" 
d="M216 10l-186 235l186 235l40 -33l-158 -202l158 -202zM237 245l133 -168l-42 -34l-158 202l158 192l42 -36z" />
    <glyph glyph-name="uni00AD" unicode="&#xad;" horiz-adv-x="435" 
d="M385 218h-335v53h335v-53z" />
    <glyph glyph-name="registered" unicode="&#xae;" horiz-adv-x="569" 
d="M390 115h-50l-34 75h-69v-75h-43v228h110c43 -1 76 -36 76 -77c0 -28 -16 -56 -39 -68zM334 266c0 31 -17 46 -52 46h-45v-91h45c35 0 52 15 52 45zM111 57c-47 48 -71 106 -71 173s24 125 71 173c48 48 106 72 173 72s125 -24 173 -72s72 -106 72 -173
s-24 -125 -72 -173s-106 -72 -173 -72s-125 24 -173 72zM146 367c-37 -37 -55 -83 -55 -137s18 -100 55 -137s83 -56 138 -56s101 19 138 56s55 83 55 137s-18 100 -55 137s-83 56 -138 56s-101 -19 -138 -56z" />
    <glyph glyph-name="degree" unicode="&#xb0;" horiz-adv-x="259" 
d="M51 477c-21 21 -31 47 -31 78s10 57 31 78s47 32 78 32s57 -11 78 -32s32 -47 32 -78s-11 -57 -32 -78s-47 -31 -78 -31s-57 10 -78 31zM84 599c-21 -21 -21 -66 0 -89c23 -21 68 -21 89 0c23 23 23 68 0 89c-21 23 -66 23 -89 0z" />
    <glyph glyph-name="plusminus" unicode="&#xb1;" horiz-adv-x="515" 
d="M231 328h-161v53h161v151h53v-151h161v-53h-161v-151h-53v151zM445 88h-375v53h375v-53z" />
    <glyph glyph-name="paragraph" unicode="&#xb6;" horiz-adv-x="471" 
d="M215 703h56v-853h-56v483c-51 0 -95 18 -131 54c-36 37 -54 80 -54 131s18 94 54 130c36 37 80 55 131 55zM335 703h56v-853h-56v853z" />
    <glyph glyph-name="middot" unicode="&#xe00c;" horiz-adv-x="242" 
d="M92 217c-16 16 -16 42 0 58s42 16 58 0s16 -42 0 -58s-42 -16 -58 0z" />
    <glyph glyph-name="guillemotright" unicode="&#xbb;" horiz-adv-x="420" 
d="M164 447l40 33l186 -235l-186 -235l-40 33l158 202zM250 245l-158 -202l-42 34l133 168l-133 156l42 36z" />
    <glyph glyph-name="afii10023" unicode="&#x401;" horiz-adv-x="534" 
d="M484 0h-404v650h394v-50h-338v-240h283v-50h-283v-260h348v-50zM152 758c-16 16 -16 42 0 58s42 16 58 0s16 -42 0 -58s-42 -16 -58 0zM362 758c-16 16 -16 42 0 58s42 16 58 0s16 -42 0 -58s-42 -16 -58 0z" />
    <glyph glyph-name="afii10051" unicode="&#x402;" horiz-adv-x="696" 
d="M50 650h402v-50h-173v-234c32 76 97 109 164 109c85 0 173 -39 173 -200v-152c0 -92 -36 -138 -107 -138c-19 0 -35 4 -46 13l13 40c12 -5 23 -7 33 -7c34 0 51 28 51 83v146c0 105 -28 163 -124 163c-44 0 -81 -17 -111 -51c-29 -34 -45 -76 -46 -125v-247h-56v600h-173
v50z" />
    <glyph glyph-name="afii10052" unicode="&#x403;" horiz-adv-x="509" 
d="M294 909h59l-75 -189h-48c42 126 63 189 64 189zM80 650h379v-50h-323v-600h-56v650z" />
    <glyph glyph-name="afii10053" unicode="&#x404;" horiz-adv-x="641" 
d="M346 613c-66 0 -121 -23 -164 -68s-67 -107 -73 -185h336l1 -50h-338c3 -83 26 -150 69 -199c44 -49 100 -74 169 -74c88 0 153 38 196 113l49 -31c-53 -89 -134 -134 -245 -134c-89 0 -161 30 -215 91s-81 144 -81 249s27 187 81 248s126 92 215 92
c110 0 192 -44 245 -133l-49 -31c-43 75 -109 112 -196 112z" />
    <glyph glyph-name="afii10054" unicode="&#x405;" horiz-adv-x="583" 
d="M533 175c0 -60 -23 -107 -70 -140c-46 -33 -104 -50 -175 -50c-48 0 -94 9 -139 26c-45 18 -79 48 -103 90l39 35c45 -66 113 -99 203 -99c112 0 189 46 189 138c0 40 -13 69 -39 86s-72 35 -137 52c-74 20 -122 36 -145 47c-57 29 -85 75 -85 140c0 97 84 165 225 165
c89 0 154 -14 215 -77l-36 -41c-60 52 -108 66 -179 66c-108 0 -169 -52 -169 -113c0 -40 13 -68 38 -85c26 -17 71 -33 135 -48c23 -5 41 -10 53 -13c24 -7 71 -21 91 -33c21 -12 52 -32 65 -55c13 -21 24 -54 24 -91z" />
    <glyph glyph-name="uni0406" unicode="&#x406;" 
d="M80 650h56v-650h-56v650z" />
    <glyph glyph-name="afii10056" unicode="&#x407;" 
d="M14 758c-16 16 -16 42 0 58s42 16 58 0s16 -42 0 -58s-42 -16 -58 0zM144 758c-16 16 -16 42 0 58s42 16 58 0s16 -42 0 -58s-42 -16 -58 0zM80 650h56v-650h-56v650z" />
    <glyph glyph-name="afii10057" unicode="&#x408;" horiz-adv-x="371" 
d="M235 650h56v-491c0 -116 -47 -174 -142 -174c-43 0 -88 20 -109 43l26 43c29 -23 56 -35 81 -35c53 0 88 41 88 132v482z" />
    <glyph glyph-name="afii10058" unicode="&#x409;" horiz-adv-x="933" 
d="M156 650h367v-231h115c152 0 245 -69 245 -213c0 -137 -82 -206 -245 -206h-171v600h-256v-153c0 -39 0 -71 -1 -96s-2 -56 -5 -95s-7 -71 -14 -97c-7 -25 -15 -51 -26 -78c-21 -53 -57 -84 -105 -93c-7 -1 -23 -2 -50 -2v49c19 0 34 1 43 3c69 13 103 136 103 369v243z
M628 372h-105v-324h105c129 0 199 37 199 158c0 123 -72 166 -199 166z" />
    <glyph glyph-name="afii10059" unicode="&#x40a;" horiz-adv-x="934" 
d="M469 650h55v-231h115c152 0 245 -69 245 -213c0 -137 -82 -206 -245 -206h-170v310h-333v-310h-56v650h56v-295h333v295zM629 372h-105v-324h105c129 0 199 37 199 158c0 123 -72 166 -199 166z" />
    <glyph glyph-name="afii10060" unicode="&#x40b;" horiz-adv-x="696" 
d="M50 650h402v-50h-173v-234c32 76 97 109 164 109c85 0 173 -39 173 -200v-275h-56v260c0 105 -28 163 -124 163c-44 0 -81 -17 -111 -51c-29 -34 -45 -76 -46 -125v-247h-56v600h-173v50z" />
    <glyph glyph-name="afii10061" unicode="&#x40c;" horiz-adv-x="579" 
d="M80 650h56v-313l298 313h74l-305 -312v-7l336 -331h-78l-325 328v-328h-56v650zM314 909h59l-75 -189h-48c42 126 63 189 64 189z" />
    <glyph glyph-name="afii10062" unicode="&#x40e;" horiz-adv-x="617" 
d="M516 650h59l-304 -650h-64l85 179l-252 471h67l214 -410zM419 857h53c0 -49 -15 -85 -46 -108c-30 -23 -66 -34 -109 -34s-79 11 -110 34c-30 23 -45 59 -45 108h53c0 -59 34 -97 102 -97s102 38 102 97z" />
    <glyph glyph-name="afii10145" unicode="&#x40f;" horiz-adv-x="635" 
d="M136 50h363v600h56v-650h-209v-156h-56v156h-210v650h56v-600z" />
    <glyph glyph-name="afii10017" unicode="&#x410;" horiz-adv-x="647" 
d="M617 0h-59l-70 163h-330l-69 -163h-59l289 670h6zM469 208l-147 344l-145 -344h292z" />
    <glyph glyph-name="afii10018" unicode="&#x411;" horiz-adv-x="586" 
d="M80 650h399v-50h-343v-211h165c148 0 235 -52 235 -193c0 -131 -78 -196 -235 -196h-221v650zM291 342h-155v-294h155c59 0 95 5 132 25c39 20 57 60 57 123c0 51 -15 87 -36 107c-38 33 -89 39 -153 39z" />
    <glyph glyph-name="afii10019" unicode="&#x412;" horiz-adv-x="598" 
d="M332 0h-252v650h231c137 0 206 -57 206 -160c0 -65 -36 -127 -96 -146v-5c38 -6 69 -25 92 -56s35 -66 35 -103c0 -109 -75 -180 -216 -180zM335 312h-199v-267h199c103 0 157 55 157 135s-54 132 -157 132zM136 605v-248h179c99 0 147 50 147 133c0 77 -49 115 -148 115
h-178z" />
    <glyph glyph-name="afii10020" unicode="&#x413;" horiz-adv-x="509" 
d="M80 650h379v-50h-323v-600h-56v650z" />
    <glyph glyph-name="afii10021" unicode="&#x414;" horiz-adv-x="656" 
d="M76 -156h-56v206h20c78 0 116 132 115 395v13v192h405v-600h76v-206h-56v156h-504v-156zM504 600h-296v-113c0 -141 -6 -242 -17 -301c-14 -77 -37 -122 -70 -136h383v550z" />
    <glyph glyph-name="afii10022" unicode="&#x415;" horiz-adv-x="534" 
d="M484 0h-404v650h394v-50h-338v-240h283v-50h-283v-260h348v-50z" />
    <glyph glyph-name="afii10024" unicode="&#x416;" horiz-adv-x="860" 
d="M139 650l263 -313v313h56v-313l263 313h72l-270 -312v-7l297 -331h-77l-285 328v-328h-56v328l-285 -328h-77l297 331v7l-270 312h72z" />
    <glyph glyph-name="afii10025" unicode="&#x417;" horiz-adv-x="606" 
d="M49 108l39 39c49 -67 125 -108 202 -108c120 0 201 52 201 149c0 111 -111 133 -191 133h-58v49h53c107 0 167 46 167 122c0 81 -56 121 -168 121c-31 0 -65 -9 -100 -26s-62 -41 -81 -72l-41 36c51 80 145 114 232 114c139 0 221 -61 221 -169c0 -68 -36 -128 -116 -139
v-6c98 -17 147 -71 147 -162c0 -55 -22 -102 -65 -143s-106 -61 -188 -61c-111 0 -196 41 -254 123z" />
    <glyph glyph-name="afii10026" unicode="&#x418;" horiz-adv-x="669" 
d="M533 0v529l-448 -549h-5v670h56v-529l448 549h5v-670h-56z" />
    <glyph glyph-name="afii10027" unicode="&#x419;" horiz-adv-x="669" 
d="M430 857h53c0 -49 -15 -85 -46 -108c-30 -23 -66 -34 -109 -34s-79 11 -110 34c-30 23 -45 59 -45 108h53c0 -59 34 -97 102 -97s102 38 102 97zM533 0v529l-448 -549h-5v670h56v-529l448 549h5v-670h-56z" />
    <glyph glyph-name="afii10028" unicode="&#x41a;" horiz-adv-x="579" 
d="M80 650h56v-313l298 313h74l-305 -312v-7l336 -331h-78l-325 328v-328h-56v650z" />
    <glyph glyph-name="afii10029" unicode="&#x41b;" horiz-adv-x="643" 
d="M507 600h-296v-153c0 -39 0 -71 -1 -96s-2 -56 -5 -95s-7 -71 -14 -97c-7 -25 -15 -51 -26 -78c-21 -53 -57 -84 -105 -93c-7 -1 -23 -2 -50 -2v49c19 0 34 1 43 3c69 13 103 136 103 369v243h407v-650h-56v600z" />
    <glyph glyph-name="afii10030" unicode="&#x41c;" horiz-adv-x="761" 
d="M381 160h-1l-244 354v-514h-56v670h6l295 -422l295 422h5v-670h-55v514z" />
    <glyph glyph-name="afii10031" unicode="&#x41d;" horiz-adv-x="644" 
d="M509 310h-373v-310h-56v650h56v-295h373v295h55v-650h-55v310z" />
    <glyph glyph-name="afii10032" unicode="&#x41e;" horiz-adv-x="692" 
d="M131 76c-54 61 -81 144 -81 249s27 187 81 248s126 92 215 92s161 -31 215 -92s81 -143 81 -248s-27 -188 -81 -249s-126 -91 -215 -91s-161 30 -215 91zM108 325c0 -87 22 -157 66 -210c44 -52 101 -78 172 -78s129 26 172 78c44 52 66 122 66 210s-22 158 -66 210
c-43 52 -101 78 -172 78s-128 -26 -172 -78s-66 -122 -66 -210z" />
    <glyph glyph-name="afii10033" unicode="&#x41f;" horiz-adv-x="645" 
d="M509 600h-373v-600h-56v650h485v-650h-56v600z" />
    <glyph glyph-name="afii10034" unicode="&#x420;" horiz-adv-x="586" 
d="M281 231h-145v-231h-56v650h201c163 0 245 -69 245 -206c0 -144 -93 -213 -245 -213zM136 602v-324h135c127 0 199 43 199 166c0 121 -70 158 -199 158h-135z" />
    <glyph glyph-name="afii10035" unicode="&#x421;" horiz-adv-x="641" 
d="M108 325c0 -87 22 -157 66 -210c44 -52 101 -78 172 -78c88 0 153 38 196 113l49 -31c-53 -89 -134 -134 -245 -134c-89 0 -161 30 -215 90s-81 142 -81 247s27 188 81 250s126 93 215 93c110 0 192 -44 245 -133l-49 -31c-43 75 -109 112 -196 112
c-71 0 -128 -26 -172 -78s-66 -122 -66 -210z" />
    <glyph glyph-name="afii10036" unicode="&#x422;" horiz-adv-x="602" 
d="M50 650h502v-50h-223v-600h-56v600h-223v50z" />
    <glyph glyph-name="afii10037" unicode="&#x423;" horiz-adv-x="617" 
d="M516 650h59l-304 -650h-64l85 179l-252 471h67l214 -410z" />
    <glyph glyph-name="afii10038" unicode="&#x424;" horiz-adv-x="742" 
d="M344 581v69h56v-69c188 0 302 -85 302 -256s-113 -255 -302 -255v-70h-56v70c-191 0 -304 84 -304 255s113 256 304 256zM344 117v416c-159 0 -248 -59 -248 -208s89 -208 248 -208zM400 533v-416c159 0 246 59 246 208c0 151 -87 208 -246 208z" />
    <glyph glyph-name="afii10039" unicode="&#x425;" horiz-adv-x="628" 
d="M102 0h-62l243 334l-223 316h67l187 -275l192 275h62l-224 -310l244 -340h-67l-208 294z" />
    <glyph glyph-name="afii10040" unicode="&#x426;" horiz-adv-x="656" 
d="M580 0h-500v650h56v-600h368v600h56v-600h76v-206h-56v156z" />
    <glyph glyph-name="afii10041" unicode="&#x427;" horiz-adv-x="595" 
d="M61 435l-1 215h56v-200c0 -72 15 -119 46 -142c32 -21 61 -27 109 -27c67 0 129 21 188 64v305h56v-650h-56v295c-61 -41 -126 -62 -193 -62c-137 0 -205 67 -205 202z" />
    <glyph glyph-name="afii10042" unicode="&#x428;" horiz-adv-x="874" 
d="M465 50h273v600h56v-650h-714v650h56v-600h273v600h56v-600z" />
    <glyph glyph-name="afii10043" unicode="&#x429;" horiz-adv-x="890" 
d="M465 50h273v600h56v-600h76v-206h-56v156h-734v650h56v-600h273v600h56v-600z" />
    <glyph glyph-name="afii10044" unicode="&#x42a;" horiz-adv-x="644" 
d="M148 598h-128v52h184v-231h145c152 0 245 -69 245 -213c0 -137 -82 -206 -245 -206h-201v598zM339 372h-135v-324h135c129 0 199 37 199 158c0 123 -72 166 -199 166z" />
    <glyph glyph-name="afii10045" unicode="&#x42b;" horiz-adv-x="776" 
d="M640 650h56v-650h-56v650zM80 650h56v-231h135c152 0 245 -69 245 -213c0 -137 -82 -206 -245 -206h-191v650zM261 372h-125v-324h125c129 0 199 37 199 158c0 123 -72 166 -199 166z" />
    <glyph glyph-name="afii10046" unicode="&#x42c;" horiz-adv-x="576" 
d="M80 650h56v-231h145c152 0 245 -69 245 -213c0 -137 -82 -206 -245 -206h-201v650zM271 372h-135v-324h135c129 0 199 37 199 158c0 123 -72 166 -199 166z" />
    <glyph glyph-name="afii10047" unicode="&#x42d;" horiz-adv-x="641" 
d="M533 310h-337v50h336c-11 159 -93 253 -230 253c-87 0 -162 -41 -203 -112l-49 31c51 84 144 133 252 133c91 0 161 -30 212 -91s77 -144 77 -250c0 -105 -26 -188 -79 -249c-52 -60 -124 -90 -217 -90c-111 0 -192 45 -245 134l49 31c43 -75 108 -113 196 -113
c144 0 233 104 238 273z" />
    <glyph glyph-name="afii10048" unicode="&#x42e;" horiz-adv-x="912" 
d="M270 310h-134v-310h-56v650h56v-295h135c5 96 35 172 88 227s122 83 207 83c89 0 161 -31 215 -92s81 -143 81 -248s-27 -188 -81 -249s-126 -91 -215 -91c-87 0 -158 29 -212 87c-53 59 -81 138 -84 238zM328 325c0 -87 22 -157 66 -210c44 -52 101 -78 172 -78
s129 26 172 78c44 52 66 122 66 210s-22 158 -66 210c-43 52 -101 78 -172 78s-128 -26 -172 -78s-66 -122 -66 -210z" />
    <glyph glyph-name="afii10049" unicode="&#x42f;" horiz-adv-x="606" 
d="M526 0h-56v231h-145c-25 0 -48 2 -67 5l-144 -236h-64l154 250c-83 31 -124 96 -124 194c0 137 82 206 245 206h201v-650zM335 278h135v324h-135c-129 0 -199 -37 -199 -158c0 -123 72 -166 199 -166z" />
    <glyph glyph-name="afii10065" unicode="&#x430;" horiz-adv-x="493" 
d="M102 368l-29 42c64 53 116 65 179 65c107 0 161 -63 161 -188v-287h-52v54c-47 -46 -103 -69 -166 -69c-95 0 -155 55 -155 136c-4 78 53 122 111 142c19 7 42 12 69 15s50 5 69 6s41 2 68 2c4 81 -25 139 -104 139c-53 0 -104 -19 -151 -57zM357 106v132
c-111 0 -183 -11 -216 -35c-33 -23 -41 -45 -41 -82c0 -52 39 -87 107 -87c52 0 102 24 150 72z" />
    <glyph glyph-name="afii10066" unicode="&#x431;" horiz-adv-x="550" 
d="M275 -15c-147 0 -225 104 -225 281c0 237 78 365 234 384l175 17v-58l-152 -10c-63 -9 -109 -30 -138 -63s-51 -85 -65 -157h5c16 31 40 55 72 71c32 17 63 25 94 25c67 0 122 -23 163 -68s62 -104 62 -177s-21 -132 -62 -177s-96 -68 -163 -68zM106 230
c0 -55 15 -100 45 -137c31 -37 72 -55 124 -55s93 18 123 54c31 37 46 83 46 138s-15 101 -45 138s-71 55 -124 55c-52 0 -93 -18 -124 -55c-30 -37 -45 -83 -45 -138z" />
    <glyph glyph-name="afii10067" unicode="&#x432;" horiz-adv-x="491" 
d="M291 0h-211v460h197c83 0 137 -40 137 -111c0 -51 -33 -94 -78 -99v-6c59 -3 105 -46 105 -119c0 -79 -57 -125 -150 -125zM272 221h-136v-173h156c59 0 89 29 89 87c0 51 -41 86 -109 86zM279 412h-143v-144h132c57 0 87 30 87 73c0 47 -25 71 -76 71z" />
    <glyph glyph-name="afii10068" unicode="&#x433;" horiz-adv-x="406" 
d="M366 412h-230v-412h-56v460h286v-48z" />
    <glyph glyph-name="afii10069" unicode="&#x434;" horiz-adv-x="532" 
d="M10 -137v184h21c36 0 72 43 87 110c8 36 13 137 14 303h307v-412h63v-184h-53v136h-386v-137h-53zM382 48v364h-198c-1 -15 -1 -31 -1 -48c1 -32 1 -93 -3 -138c-7 -91 -28 -150 -62 -178h264z" />
    <glyph glyph-name="afii10070" unicode="&#x435;" horiz-adv-x="530" 
d="M50 230c0 72 20 131 61 176c41 46 93 69 154 69c141 0 215 -94 215 -245v-12h-374c4 -107 64 -181 172 -181c65 0 116 23 154 70l37 -33c-45 -59 -109 -89 -194 -89c-143 0 -225 97 -225 245zM265 423c-81 0 -143 -62 -156 -157h312c-8 99 -60 157 -156 157z" />
    <glyph glyph-name="afii10072" unicode="&#x436;" horiz-adv-x="667" 
d="M124 460l181 -217v217h56v-217l181 217h72l-193 -216v-6l206 -238h-77l-189 235v-235h-56v235l-189 -235h-76l206 238v6l-193 216h71z" />
    <glyph glyph-name="afii10073" unicode="&#x437;" horiz-adv-x="486" 
d="M51 74l36 38c38 -49 89 -74 154 -74c81 0 134 31 134 98c0 61 -54 85 -123 85h-64v47h60c71 0 106 25 106 75c0 52 -43 84 -116 84c-22 0 -47 -6 -74 -19s-47 -29 -60 -49l-36 39c39 51 98 77 177 77c107 0 169 -49 169 -129c0 -20 -8 -40 -23 -61
c-15 -20 -35 -31 -61 -34v-4c67 -4 106 -51 106 -115c0 -81 -60 -147 -191 -147c-87 0 -151 30 -194 89z" />
    <glyph glyph-name="afii10074" unicode="&#x438;" horiz-adv-x="538" 
d="M136 460v-347l316 367h6v-480h-56v347l-316 -367h-6v480h56z" />
    <glyph glyph-name="afii10075" unicode="&#x439;" horiz-adv-x="538" 
d="M136 460v-347l316 367h6v-480h-56v347l-316 -367h-6v480h56zM347 649h48c0 -97 -54 -137 -125 -137s-125 40 -125 137h50c0 -61 25 -92 75 -92c51 0 77 31 77 92z" />
    <glyph glyph-name="afii10076" unicode="&#x43a;" horiz-adv-x="480" 
d="M80 460h56v-217l210 217h76l-219 -217v-6l237 -237h-76l-228 235v-235h-56v460z" />
    <glyph glyph-name="afii10077" unicode="&#x43b;" horiz-adv-x="517" 
d="M380 0v412h-196c-1 -59 5 -226 -27 -326c-24 -72 -62 -107 -137 -96v50c59 -7 81 30 98 107c8 36 13 140 14 313h305v-460h-57z" />
    <glyph glyph-name="afii10078" unicode="&#x43c;" horiz-adv-x="644" 
d="M594 0h-51l-55 334l-168 -354h-6l-166 354l-57 -334h-51l80 480h6l192 -394l190 394h6z" />
    <glyph glyph-name="afii10079" unicode="&#x43d;" horiz-adv-x="533" 
d="M397 215h-261v-215h-56v460h56v-197h261v197h56v-460h-56v215z" />
    <glyph glyph-name="afii10080" unicode="&#x43e;" horiz-adv-x="554" 
d="M277 -15c-67 0 -122 23 -164 68s-63 104 -63 177s21 132 63 177s97 68 164 68s122 -23 164 -68s63 -104 63 -177s-21 -132 -63 -177c-41 -45 -96 -68 -164 -68zM106 230c0 -55 15 -100 46 -137s73 -55 125 -55c53 0 94 18 125 55s46 82 46 137s-15 101 -46 138
s-72 55 -125 55c-52 0 -94 -18 -125 -55s-46 -83 -46 -138z" />
    <glyph glyph-name="afii10081" unicode="&#x43f;" horiz-adv-x="533" 
d="M397 412h-261v-412h-56v460h373v-460h-56v412z" />
    <glyph glyph-name="afii10082" unicode="&#x440;" horiz-adv-x="578" 
d="M80 460h51v-94c35 72 106 109 179 109c65 0 118 -23 158 -68s60 -104 60 -177s-20 -132 -60 -177s-93 -68 -158 -68c-79 0 -145 36 -174 91v-260h-56v644zM132 230c0 -112 62 -192 171 -192c51 0 92 18 123 55s46 82 46 137s-15 101 -46 138s-72 55 -123 55
c-50 0 -91 -18 -122 -55c-31 -36 -48 -82 -49 -138z" />
    <glyph glyph-name="afii10083" unicode="&#x441;" horiz-adv-x="508" 
d="M279 38c63 0 111 22 142 67l37 -34c-43 -57 -102 -86 -179 -86c-67 0 -122 23 -165 68s-64 104 -64 177c0 72 21 131 64 176c43 46 98 69 165 69c73 0 131 -28 174 -85l-37 -35c-32 45 -78 68 -137 68c-52 0 -94 -19 -126 -56c-31 -37 -47 -82 -47 -137s16 -100 47 -137
c32 -37 74 -55 126 -55z" />
    <glyph glyph-name="afii10084" unicode="&#x442;" horiz-adv-x="485" 
d="M214 0v412h-164v48h385v-48h-165v-412h-56z" />
    <glyph glyph-name="afii10085" unicode="&#x443;" horiz-adv-x="492" 
d="M404 460h58l-255 -644h-62l76 184l-191 460h63l160 -397z" />
    <glyph glyph-name="afii10086" unicode="&#x444;" horiz-adv-x="824" 
d="M440 -184h-56v260c-31 -61 -78 -91 -139 -91c-112 0 -185 92 -185 245s73 245 185 245c61 0 108 -31 139 -94v269h56v-269c31 63 78 94 139 94c112 0 185 -92 185 -245s-73 -245 -185 -245c-61 0 -108 30 -139 91v-260zM708 230c0 120 -48 198 -131 198
c-76 0 -136 -73 -139 -198c0 -124 54 -197 139 -197c83 0 131 78 131 197zM116 230c0 -119 48 -197 131 -197c85 0 139 73 139 197c-3 125 -63 198 -139 198c-83 0 -131 -78 -131 -198z" />
    <glyph glyph-name="afii10087" unicode="&#x445;" horiz-adv-x="491" 
d="M110 0h-70l174 240l-159 220h70l120 -180l121 180h70l-160 -220l175 -240h-70l-136 199z" />
    <glyph glyph-name="afii10088" unicode="&#x446;" horiz-adv-x="554" 
d="M136 460v-412h257v412h56v-412h75v-184h-53v136h-391v460h56z" />
    <glyph glyph-name="afii10089" unicode="&#x447;" horiz-adv-x="478" 
d="M342 235v225h56v-460h-56v188c-51 -21 -93 -32 -124 -32c-36 0 -59 2 -92 15c-44 20 -76 64 -76 161v128h56v-139c0 -87 35 -119 119 -119c29 0 68 11 117 33z" />
    <glyph glyph-name="afii10090" unicode="&#x448;" horiz-adv-x="713" 
d="M136 460v-412h192v412h57v-412h192v412h56v-460h-553v460h56z" />
    <glyph glyph-name="afii10091" unicode="&#x449;" horiz-adv-x="738" 
d="M633 460v-412h75v-184h-53v136h-575v460h56v-412h192v412h57v-412h192v412h56z" />
    <glyph glyph-name="afii10092" unicode="&#x44a;" horiz-adv-x="518" 
d="M290 0h-156v410h-114v50h171v-145h99c125 0 188 -52 188 -155c0 -107 -71 -160 -188 -160zM191 267v-219h113c72 0 117 43 117 112s-45 107 -117 107h-113z" />
    <glyph glyph-name="afii10093" unicode="&#x44b;" horiz-adv-x="636" 
d="M556 0h-57v460h57v-460zM231 0h-151v460h57v-145h94c125 0 188 -52 188 -155c0 -107 -71 -160 -188 -160zM137 267v-219h108c72 0 117 43 117 112s-45 107 -117 107h-108z" />
    <glyph glyph-name="afii10094" unicode="&#x44c;" horiz-adv-x="464" 
d="M236 0h-156v460h57v-145h99c125 0 188 -52 188 -155c0 -107 -71 -160 -188 -160zM137 267v-219h113c72 0 117 43 117 112s-45 107 -117 107h-113z" />
    <glyph glyph-name="afii10095" unicode="&#x44d;" horiz-adv-x="508" 
d="M401 215h-245v48h244c-11 97 -71 160 -164 160c-60 0 -115 -27 -144 -68l-37 35c43 57 103 85 181 85c136 0 222 -92 222 -245c0 -73 -21 -132 -62 -177s-95 -68 -162 -68c-73 0 -144 33 -184 86l37 34c31 -45 80 -67 147 -67c99 0 162 74 167 177z" />
    <glyph glyph-name="afii10096" unicode="&#x44e;" horiz-adv-x="727" 
d="M233 215h-97v-215h-56v460h56v-197h98c7 64 30 115 69 154c40 39 91 58 152 58c67 0 120 -23 161 -68s61 -104 61 -177s-20 -133 -61 -178c-40 -45 -94 -67 -161 -67c-65 0 -117 21 -157 63s-62 98 -65 167zM621 230c0 112 -62 193 -166 193c-52 0 -93 -18 -122 -55
s-44 -83 -44 -138s15 -101 44 -138c29 -36 70 -54 122 -54s93 18 122 54c29 37 44 83 44 138z" />
    <glyph glyph-name="afii10097" unicode="&#x44f;" horiz-adv-x="496" 
d="M40 0l139 183v4c-59 11 -101 58 -101 129c0 47 16 83 47 107c31 25 69 37 114 37h177v-460h-56v179h-120l-131 -179h-69zM138 316c0 -63 42 -90 102 -90h120v181h-105c-72 0 -117 -30 -117 -91z" />
    <glyph glyph-name="afii10071" unicode="&#x451;" horiz-adv-x="530" 
d="M50 230c0 72 20 131 61 176c41 46 93 69 154 69c141 0 215 -94 215 -245v-12h-374c4 -107 64 -181 172 -181c65 0 116 23 154 70l37 -33c-45 -59 -109 -89 -194 -89c-143 0 -225 97 -225 245zM265 423c-81 0 -143 -62 -156 -157h312c-8 99 -60 157 -156 157zM118 588
c-16 16 -16 42 0 58s42 16 58 0s16 -42 0 -58s-42 -16 -58 0zM358 588c-16 16 -16 42 0 58s42 16 58 0s16 -42 0 -58s-42 -16 -58 0z" />
    <glyph glyph-name="afii10099" unicode="&#x452;" horiz-adv-x="612" 
d="M60 522v48h79v80h56v-80h109v-48h-109v-156c32 76 97 109 164 109c85 0 173 -39 173 -200v-325c0 -92 -36 -138 -107 -138c-19 0 -35 4 -46 13l13 40c12 -5 23 -7 33 -7c34 0 51 28 51 83v319c0 105 -28 163 -124 163c-44 0 -81 -17 -111 -51c-29 -34 -45 -76 -46 -125
v-247h-56v522h-79z" />
    <glyph glyph-name="afii10100" unicode="&#x453;" horiz-adv-x="416" 
d="M376 412h-240v-412h-56v460h296v-48zM246 732h59l-75 -189h-48c42 126 63 189 64 189z" />
    <glyph glyph-name="afii10101" unicode="&#x454;" horiz-adv-x="508" 
d="M279 423c-93 0 -159 -67 -171 -160h243l1 -48h-246c3 -51 20 -93 51 -127c31 -33 72 -50 122 -50c63 0 111 22 142 67l37 -34c-43 -57 -102 -86 -179 -86c-67 0 -122 23 -165 68s-64 104 -64 177c0 72 21 131 64 176c43 46 98 69 165 69c73 0 131 -28 174 -85l-37 -35
c-32 45 -78 68 -137 68z" />
    <glyph glyph-name="afii10102" unicode="&#x455;" horiz-adv-x="468" 
d="M400 421l-30 -46c-43 32 -90 48 -140 48c-67 0 -108 -28 -108 -75c0 -31 22 -54 65 -67l71 -15c45 -9 75 -18 108 -38c35 -20 52 -54 52 -99c0 -83 -65 -144 -178 -144c-86 0 -150 29 -191 88l36 43c43 -52 96 -78 160 -78s116 30 116 91c0 25 -14 44 -26 55
c-6 6 -17 11 -32 16s-26 8 -33 9l-40 9c-40 8 -59 12 -92 25c-47 20 -70 48 -73 105c0 81 74 127 170 127c69 0 124 -18 165 -54z" />
    <glyph glyph-name="afii10103" unicode="&#x456;" horiz-adv-x="242" 
d="M149 0h-56v460h56v-460zM92 588c-16 16 -16 42 0 58s42 16 58 0s16 -42 0 -58s-42 -16 -58 0z" />
    <glyph glyph-name="afii10104" unicode="&#x457;" 
d="M136 0h-56v460h56v-460zM14 588c-16 16 -16 42 0 58s42 16 58 0s16 -42 0 -58s-42 -16 -58 0zM144 588c-16 16 -16 42 0 58s42 16 58 0s16 -42 0 -58s-42 -16 -58 0z" />
    <glyph glyph-name="afii10105" unicode="&#x458;" horiz-adv-x="229" 
d="M80 460h56v-510c0 -92 -36 -138 -107 -138c-19 0 -35 4 -46 13l13 40c12 -5 23 -7 33 -7c34 0 51 28 51 83v519zM79 588c-16 16 -16 42 0 58s42 16 58 0s16 -42 0 -58s-42 -16 -58 0z" />
    <glyph glyph-name="afii10106" unicode="&#x459;" horiz-adv-x="764" 
d="M536 0h-156v412h-196c-1 -59 5 -226 -27 -326c-24 -72 -62 -107 -137 -96v50c59 -7 82 31 98 107c7 35 12 139 14 310v3h305v-145h99c125 0 188 -52 188 -155c0 -107 -71 -160 -188 -160zM437 267v-219h113c72 0 117 43 117 112s-45 107 -117 107h-113z" />
    <glyph glyph-name="afii10107" unicode="&#x45a;" horiz-adv-x="780" 
d="M552 0h-155v215h-261v-215h-56v460h56v-197h261v197h56v-145h99c125 0 188 -52 188 -155c0 -107 -71 -160 -188 -160zM453 267v-219h113c72 0 117 43 117 112s-45 107 -117 107h-113z" />
    <glyph glyph-name="afii10108" unicode="&#x45b;" horiz-adv-x="612" 
d="M60 522v48h79v80h56v-80h109v-48h-109v-156c32 76 97 109 164 109c85 0 173 -39 173 -200v-275h-56v260c0 105 -28 163 -124 163c-44 0 -81 -17 -111 -51c-29 -34 -45 -76 -46 -125v-247h-56v522h-79z" />
    <glyph glyph-name="afii10109" unicode="&#x45c;" horiz-adv-x="480" 
d="M80 460h56v-217l210 217h76l-219 -217v-6l237 -237h-76l-228 235v-235h-56v460zM266 732h59l-75 -189h-48c42 126 63 189 64 189z" />
    <glyph glyph-name="afii10110" unicode="&#x45e;" horiz-adv-x="512" 
d="M414 460h58l-252 -644h-62l73 184l-191 460h63l160 -397zM335 649h48c0 -97 -54 -137 -125 -137s-125 40 -125 137h50c0 -61 25 -92 75 -92c51 0 77 31 77 92z" />
    <glyph glyph-name="afii10193" unicode="&#x45f;" horiz-adv-x="533" 
d="M136 48h261v412h56v-460h-160v-136h-53v136h-160v460h56v-412z" />
    <glyph glyph-name="afii10050" unicode="&#x490;" horiz-adv-x="519" 
d="M418 650v156h51v-206h-333v-600h-56v650h338z" />
    <glyph glyph-name="afii10098" unicode="&#x491;" horiz-adv-x="426" 
d="M338 460v136h48v-184h-250v-412h-56v460h258z" />
    <glyph glyph-name="endash" unicode="&#x2013;" horiz-adv-x="515" 
d="M445 218h-375v53h375v-53z" />
    <glyph glyph-name="emdash" unicode="&#x2014;" horiz-adv-x="795" 
d="M655 218h-515v53h515v-53z" />
    <glyph glyph-name="quoteleft" unicode="&#x2018;" horiz-adv-x="183" 
d="M109 481h-69l65 189h38c-22 -126 -33 -189 -34 -189z" />
    <glyph glyph-name="quoteright" unicode="&#x2019;" horiz-adv-x="183" 
d="M74 650h69l-65 -189h-38c22 126 33 189 34 189z" />
    <glyph glyph-name="quotesinglbase" unicode="&#x201a;" horiz-adv-x="203" 
d="M74 69h69l-65 -189h-38c22 126 33 189 34 189z" />
    <glyph glyph-name="quotedblleft" unicode="&#x201c;" horiz-adv-x="293" 
d="M219 481h-69l65 189h38c-22 -126 -33 -189 -34 -189zM109 481h-69l65 189h38c-22 -126 -33 -189 -34 -189z" />
    <glyph glyph-name="quotedblright" unicode="&#x201d;" horiz-adv-x="293" 
d="M74 650h69l-65 -189h-38c22 126 33 189 34 189zM184 650h69l-65 -189h-38c22 126 33 189 34 189z" />
    <glyph glyph-name="quotedblbase" unicode="&#x201e;" horiz-adv-x="293" 
d="M74 69h69l-65 -189h-38c22 126 33 189 34 189zM184 69h69l-65 -189h-38c22 126 33 189 34 189z" />
    <glyph glyph-name="dagger" unicode="&#x2020;" horiz-adv-x="315" 
d="M136 525l-116 -7v53l116 -7l-7 136h56l-7 -136l117 7v-53l-117 7l7 -309h-56z" />
    <glyph glyph-name="daggerdbl" unicode="&#x2021;" horiz-adv-x="315" 
d="M136 525l-116 -7v53l116 -7l-7 136h56l-7 -136l117 7v-53l-117 7v-131l117 7v-53l-117 7l7 -139h-56l7 139l-116 -7v53l116 -7v131z" />
    <glyph glyph-name="bullet" unicode="&#x2022;" horiz-adv-x="340" 
d="M170 337c48 0 90 -41 90 -90c0 -51 -42 -90 -90 -90c-51 0 -90 42 -90 90s39 90 90 90z" />
    <glyph glyph-name="ellipsis" unicode="&#x2026;" horiz-adv-x="502" 
d="M62 7c-16 16 -16 42 0 58s42 16 58 0s16 -42 0 -58s-42 -16 -58 0zM382 7c-16 16 -16 42 0 58s42 16 58 0s16 -42 0 -58s-42 -16 -58 0zM222 7c-16 16 -16 42 0 58s42 16 58 0s16 -42 0 -58s-42 -16 -58 0z" />
    <glyph glyph-name="perthousand" unicode="&#x2030;" horiz-adv-x="1200" 
d="M81 387c-27 30 -41 69 -41 117s14 87 41 116c28 30 66 45 113 45s85 -15 112 -45c28 -29 42 -68 42 -116s-14 -87 -42 -117c-27 -29 -65 -44 -112 -44s-85 15 -113 44zM96 504c0 -60 37 -106 98 -106s98 46 98 106c0 61 -37 106 -98 106s-98 -45 -98 -106zM536 664
l51 -24l-304 -655l-51 24zM523 29c-27 30 -41 69 -41 117s14 87 41 116c28 30 66 45 113 45s85 -15 112 -45c28 -29 42 -68 42 -116s-14 -87 -42 -117c-27 -29 -65 -44 -112 -44s-85 15 -113 44zM538 146c0 -60 37 -106 98 -106s98 46 98 106c0 61 -37 106 -98 106
s-98 -45 -98 -106zM893 29c-27 30 -41 69 -41 117s14 87 41 116c28 30 66 45 113 45s85 -15 112 -45c28 -29 42 -68 42 -116s-14 -87 -42 -117c-27 -29 -65 -44 -112 -44s-85 15 -113 44zM908 146c0 -60 37 -106 98 -106s98 46 98 106c0 61 -37 106 -98 106
s-98 -45 -98 -106z" />
    <glyph glyph-name="guilsinglleft" unicode="&#x2039;" horiz-adv-x="326" 
d="M236 20l-206 225l206 225l40 -33l-178 -192l178 -192z" />
    <glyph glyph-name="guilsinglright" unicode="&#x203a;" horiz-adv-x="326" 
d="M50 437l40 33l206 -225l-206 -225l-40 33l178 192z" />
    <glyph glyph-name="Euro" unicode="&#x20ac;" horiz-adv-x="548" 
d="M104 239h-84v50h82v72h-82v50h84c11 168 89 254 212 254c87 0 147 -43 178 -130l-52 -25c-25 68 -67 102 -126 102c-91 0 -150 -64 -154 -201h213v-50h-215v-72h215v-50h-213c4 -137 63 -201 154 -201c59 0 101 34 126 102l52 -25c-31 -87 -91 -130 -178 -130
c-123 0 -201 86 -212 254z" />
    <glyph glyph-name="afii61352" unicode="&#x2116;" horiz-adv-x="931" 
d="M679 357c-27 27 -40 59 -40 96s13 69 40 96s59 40 96 40s69 -13 96 -40s40 -59 40 -96s-13 -69 -40 -96s-59 -40 -96 -40s-69 13 -96 40zM710 517c-36 -36 -36 -92 0 -129c37 -36 93 -36 129 0c37 37 37 93 0 129c-36 37 -92 37 -129 0zM911 230h-272v43h272v-43z
M589 -20h-5l-448 544v-524h-56v670h5l448 -544v524h56v-670z" />
    <glyph glyph-name="trademark" unicode="&#x2122;" horiz-adv-x="472" 
d="M268 650l63 -188l63 188h58v-231h-41v166l-56 -166h-47l-56 166v-166h-42v193h-73v-193h-42v193h-75v38h248z" />
    <glyph glyph-name="CR.001" unicode="&#xe001;" horiz-adv-x="220" 
 />
    <glyph glyph-name="percent" unicode="%" horiz-adv-x="830" 
d="M81 387c-27 30 -41 69 -41 117s14 87 41 116c28 30 66 45 113 45s85 -15 112 -45c28 -29 42 -68 42 -116s-14 -87 -42 -117c-27 -29 -65 -44 -112 -44s-85 15 -113 44zM96 504c0 -60 37 -106 98 -106s98 46 98 106c0 61 -37 106 -98 106s-98 -45 -98 -106zM536 664
l51 -24l-304 -655l-51 24zM523 29c-27 30 -41 69 -41 117s14 87 41 116c28 30 66 45 113 45s85 -15 112 -45c28 -29 42 -68 42 -116s-14 -87 -42 -117c-27 -29 -65 -44 -112 -44s-85 15 -113 44zM538 146c0 -60 37 -106 98 -106s98 46 98 106c0 61 -37 106 -98 106
s-98 -45 -98 -106z" />
    <glyph glyph-name="g.alt" unicode="&#xe00a;" horiz-adv-x="578" 
d="M447 366v94h51v-404c0 -165 -78 -255 -223 -255c-100 0 -166 38 -198 113l47 22c24 -55 74 -82 151 -82c111 0 167 67 167 202v20c-29 -55 -95 -91 -174 -91c-65 0 -118 23 -158 68s-60 104 -60 177s20 132 60 177s93 68 158 68c73 0 144 -37 179 -109zM446 230
c-1 56 -18 102 -49 138c-31 37 -72 55 -122 55c-51 0 -92 -18 -123 -55s-46 -83 -46 -138s15 -100 46 -137s72 -55 123 -55c109 0 171 80 171 192z" />
    <glyph glyph-name="a.alt" unicode="&#xe003;" horiz-adv-x="578" 
d="M447 366v94h51v-460h-56v76c-29 -55 -95 -91 -174 -91c-65 0 -118 23 -158 68s-60 104 -60 177s20 132 60 177s93 68 158 68c73 0 144 -37 179 -109zM446 230c-1 56 -18 102 -49 138c-31 37 -72 55 -122 55c-51 0 -92 -18 -123 -55s-46 -83 -46 -138s15 -100 46 -137
s72 -55 123 -55c109 0 171 80 171 192z" />
    <glyph glyph-name="hyphen.2" unicode="&#xe00b;" horiz-adv-x="435" 
d="M385 218h-335v53h335v-53z" />
    <glyph glyph-name="asciitilde.2" unicode="&#xe004;" horiz-adv-x="572" 
d="M225 296l146 -51c69 -24 102 -2 100 65l51 -13c-7 -103 -65 -136 -175 -98l-146 51c-67 23 -101 -1 -100 -70l-51 13c7 104 62 134 175 103z" />
    <glyph glyph-name="endash.2" unicode="&#xe008;" horiz-adv-x="515" 
d="M445 218h-375v53h375v-53z" />
    <glyph glyph-name="emdash.2" unicode="&#xe007;" horiz-adv-x="795" 
d="M655 218h-515v53h515v-53z" />
    <glyph glyph-name="uni00AD.2" unicode="&#xe010;" horiz-adv-x="435" 
d="M385 218h-335v53h335v-53z" />
    <glyph glyph-name="plus.2" unicode="&#xe00e;" horiz-adv-x="515" 
d="M231 218h-161v53h161v171h53v-171h161v-53h-161v-171h-53v171z" />
    <glyph glyph-name="colon.2" unicode="&#xe006;" horiz-adv-x="222" 
d="M82 67c-16 16 -16 42 0 58s42 16 58 0s16 -42 0 -58s-42 -16 -58 0zM82 335c-16 16 -16 42 0 58s42 16 58 0s16 -42 0 -58s-42 -16 -58 0z" />
    <glyph glyph-name="periodcentered.2" unicode="&#xe00d;" horiz-adv-x="242" 
d="M92 217c-16 16 -16 42 0 58s42 16 58 0s16 -42 0 -58s-42 -16 -58 0z" />
    <glyph glyph-name="bullet.2" unicode="&#xe005;" horiz-adv-x="340" 
d="M170 337c48 0 90 -41 90 -90c0 -51 -42 -90 -90 -90c-51 0 -90 42 -90 90s39 90 90 90z" />
    <glyph glyph-name="plusminus.2" unicode="&#xe00f;" horiz-adv-x="515" 
d="M231 328h-161v53h161v151h53v-151h161v-53h-161v-151h-53v151zM445 88h-375v53h375v-53z" />
    <glyph glyph-name="equal.2" unicode="&#xe009;" horiz-adv-x="515" 
d="M445 158h-375v53h375v-53zM445 288h-375v53h375v-53z" />
    </font>
</defs>
</svg>
